<?xml version="1.0" encoding="UTF-8"?>
<svg version="1.1" xmlns="http://www.w3.org/2000/svg" width="500" height="500">
<path d="M0 0 C1.01964844 -0.01675781 2.03929687 -0.03351563 3.08984375 -0.05078125 C7.48841592 0.48675779 10.11586037 2.13736115 12.875 5.5625 C14.83750448 10.10724722 14.55854086 14.63737231 13.0625 19.3125 C14.01125 19.56 14.96 19.8075 15.9375 20.0625 C19.0625 21.3125 19.0625 21.3125 20.0625 23.375 C20.3925 24.014375 20.7225 24.65375 21.0625 25.3125 C23.05235949 25.70182033 25.05449544 26.03137936 27.0625 26.3125 C29.375 27.4375 29.375 27.4375 31.0625 29.3125 C32.02136066 33.36921819 32.20611273 36.34040997 31.0625 40.3125 C31.66578125 40.61542969 32.2690625 40.91835937 32.890625 41.23046875 C41.59843429 45.7950462 41.59843429 45.7950462 44.0625 50.3125 C44.39899201 52.5796149 44.56771577 54.82696438 44.72265625 57.11328125 C45.23658718 60.43906418 47.12715823 62.61475086 49.0625 65.3125 C51.50114658 71.40911645 51.68481673 77.82393295 51.0625 84.3125 C50.42908584 85.66194756 49.76471503 86.99754134 49.0625 88.3125 C48.72516461 90.37400471 48.72516461 90.37400471 48.625 92.4375 C48.439375 93.71625 48.25375 94.995 48.0625 96.3125 C44.57329626 98.63863583 43.11297454 98.55497293 39 98.5 C37.40478516 98.49033203 37.40478516 98.49033203 35.77734375 98.48046875 C33.0625 98.3125 33.0625 98.3125 31.0625 97.3125 C30.711875 98.50875 30.36125 99.705 30 100.9375 C28.15621046 106.59417471 25.33518344 111.68412155 22.48828125 116.8828125 C19.56058069 123.92533605 21.40032819 129.25968668 24.15185547 136.0390625 C27.52563083 143.93227913 32.20324035 151.07590727 36.79956055 158.29736328 C41.873133 166.39271744 41.873133 166.39271744 42.5 169.4375 C42.99548026 171.65221831 42.99548026 171.65221831 45.625 173.75 C48.0625 176.3125 48.0625 176.3125 48.5625 178.875 C47.98317743 181.69919751 46.83530533 183.08234862 45.0625 185.3125 C45.68036377 185.29219727 46.29822754 185.27189453 46.93481445 185.25097656 C55.14329789 185.1043297 63.12432546 185.97759599 71.25 187.0625 C71.93337433 187.15242218 72.61674866 187.24234436 73.3208313 187.33499146 C102.79023519 191.24660714 102.79023519 191.24660714 111.0625 198.3125 C111.9375 200.875 111.9375 200.875 111.0625 203.3125 C106.48494635 206.93758131 102.0592702 208.48133125 96.4375 209.875 C95.60629639 210.08552002 94.77509277 210.29604004 93.91870117 210.51293945 C76.91420161 214.66555343 59.49508106 216.20150405 42.0625 217.3125 C41.39081787 217.3562677 40.71913574 217.4000354 40.02709961 217.44512939 C26.06933779 218.32881132 12.1366172 218.467687 -1.84619141 218.44287109 C-5.43266016 218.43750724 -9.01900374 218.44285369 -12.60546875 218.44921875 C-24.67061706 218.45238521 -36.67942587 218.26153261 -48.72363281 217.53295898 C-54.79274657 217.17859303 -60.86001629 217.22194147 -66.9375 217.3125 C-66.9375 216.6525 -66.9375 215.9925 -66.9375 215.3125 C-67.51870605 215.33207764 -68.09991211 215.35165527 -68.69873047 215.37182617 C-75.63384783 215.50081035 -82.2262304 214.74601962 -89.0625 213.625 C-90.15328857 213.44783447 -91.24407715 213.27066895 -92.36791992 213.08813477 C-115.61494226 209.11954943 -115.61494226 209.11954943 -121.9375 203.3125 C-122.6875 200.9375 -122.6875 200.9375 -121.9375 198.3125 C-110.83413764 188.82837799 -92.42180167 188.31843806 -78.4375 186.5625 C-76.7277528 186.34070373 -75.01811641 186.11805158 -73.30859375 185.89453125 C-69.18610022 185.35736032 -65.0623031 184.83162531 -60.9375 184.3125 C-61.2675 183.6525 -61.5975 182.9925 -61.9375 182.3125 C-61.96576143 180.56249375 -61.92549533 178.81117222 -61.8515625 177.0625 C-61.80845947 175.98726074 -61.76535645 174.91202148 -61.72094727 173.80419922 C-61.66865967 172.65193848 -61.61637207 171.49967773 -61.5625 170.3125 C-61.512146 169.14090332 -61.46179199 167.96930664 -61.40991211 166.76220703 C-61.30620883 164.39115087 -61.1996984 162.02021576 -61.09033203 159.64941406 C-60.95626803 156.72227865 -60.83374675 153.79496637 -60.71484375 150.8671875 C-60.6441943 149.30724766 -60.57265322 147.7473478 -60.5 146.1875 C-60.47309082 145.49785156 -60.44618164 144.80820312 -60.41845703 144.09765625 C-60.11718753 138.25100993 -59.77143085 132.14643085 -55.5 127.875 C-52.12572592 125.81751581 -49.63009982 125.18639181 -45.75 125.25 C-44.491875 125.270625 -43.23375 125.29125 -41.9375 125.3125 C-41.94860306 124.72447601 -41.95970612 124.13645203 -41.97114563 123.53060913 C-42.08194628 117.39865338 -42.15725287 111.26698295 -42.2121582 105.13427734 C-42.23726942 102.84705043 -42.27136516 100.5599035 -42.31469727 98.27294922 C-42.37549581 94.98124435 -42.4037444 91.6906023 -42.42578125 88.3984375 C-42.45158768 87.37946381 -42.4773941 86.36049011 -42.50398254 85.31063843 C-42.50710673 77.36446817 -42.50710673 77.36446817 -39.53100586 73.69506836 C-37.35492576 71.69597529 -35.93448063 70.44199557 -33.1875 69.5 C-30.12389603 68.63939154 -30.12389603 68.63939154 -28.9375 67.3125 C-25.93691366 66.85401404 -22.93061089 66.47608611 -19.91796875 66.10546875 C-16.26468331 65.13349372 -15.01181918 64.49279505 -12.9375 61.3125 C-12.38511937 58.10608207 -12.38331904 54.93519482 -12.375 51.6875 C-12.23738615 45.16891871 -12.01887202 39.51194634 -9.265625 33.48046875 C-8.8281893 30.59026859 -9.9869597 28.87076428 -11.20361328 26.29956055 C-12.54892942 22.65700297 -12.32908651 18.96227743 -12.25 15.125 C-12.25322266 14.33158203 -12.25644531 13.53816406 -12.25976562 12.72070312 C-12.19025498 5.19459605 -12.19025498 5.19459605 -9.9375 2.3125 C-6.74820929 0.07502433 -3.82778649 0.01448091 0 0 Z M-18.1875 77.25 C-19.26515625 77.44464844 -20.3428125 77.63929688 -21.453125 77.83984375 C-22.27296875 77.99582031 -23.0928125 78.15179688 -23.9375 78.3125 C-25.17470958 82.02412874 -25.08499603 85.44760182 -25.0625 89.3125 C-25.06056641 90.12178955 -25.05863281 90.9310791 -25.05664062 91.76489258 C-24.97739106 103.62040706 -24.43691313 115.46870503 -23.9375 127.3125 C-22.98488281 127.57675781 -22.03226562 127.84101563 -21.05078125 128.11328125 C-17.9375 129.3125 -17.9375 129.3125 -16.125 132.5 C-12.31755346 144.72390731 -14.12013683 157.73094543 -14.9375 170.3125 C-6.31290164 162.62614246 -6.33495815 149.8048943 -5.70849609 139.00439453 C-5.3588171 133.69511746 -4.65215109 130.00870121 -1.9375 125.3125 C-1.5914839 121.99074541 -1.77500082 119.77833099 -2.875 116.625 C-4.1099794 112.77477012 -4.35966498 109.2118165 -4.59375 105.19140625 C-4.86400907 102.21117433 -4.86400907 102.21117433 -5.9296875 99.0546875 C-7.12580823 94.61327795 -7.38549138 90.45141028 -7.5625 85.875 C-7.60117188 85.04806641 -7.63984375 84.22113281 -7.6796875 83.36914062 C-7.77303092 81.35058927 -7.85630961 79.33157669 -7.9375 77.3125 C-11.68680621 76.23369019 -14.33381379 76.53790581 -18.1875 77.25 Z M-28.9375 78.3125 C-29.9275 79.7975 -29.9275 79.7975 -30.9375 81.3125 C-33.5775 81.6425 -36.2175 81.9725 -38.9375 82.3125 C-38.9375 96.1725 -38.9375 110.0325 -38.9375 124.3125 C-34.9775 124.6425 -31.0175 124.9725 -26.9375 125.3125 C-26.91264838 119.9047885 -26.89456853 114.49711079 -26.88256836 109.08935547 C-26.87756181 107.25243551 -26.8707546 105.41551949 -26.86206055 103.57861328 C-26.84983303 100.92739892 -26.84423477 98.27623757 -26.83984375 95.625 C-26.83468246 94.81321289 -26.82952118 94.00142578 -26.82420349 93.16503906 C-26.82371558 88.12515411 -27.21653796 83.30185667 -27.9375 78.3125 C-28.2675 78.3125 -28.5975 78.3125 -28.9375 78.3125 Z M9.0625 144.3125 C8.56943359 145.91351563 8.56943359 145.91351563 8.06640625 147.546875 C4.44593282 158.98834964 -0.08701531 169.79981098 -5.20654297 180.64868164 C-6.0045368 182.16220664 -6.0045368 182.16220664 -5.9375 183.3125 C5.2825 183.3125 16.5025 183.3125 28.0625 183.3125 C30.57198725 176.20671955 30.57198725 176.20671955 29.29907227 172.8347168 C28.83041748 172.15062744 28.3617627 171.46653809 27.87890625 170.76171875 C27.36634277 169.98554199 26.8537793 169.20936523 26.32568359 168.40966797 C25.76445801 167.61447754 25.20323242 166.81928711 24.625 166 C23.790896 164.75694092 23.790896 164.75694092 22.93994141 163.48876953 C21.83422162 161.84128887 20.71949665 160.19981119 19.59521484 158.56494141 C17.61706938 155.65790572 15.77869237 152.68287266 13.9375 149.6875 C12.04467657 146.39873608 12.04467657 146.39873608 9.0625 144.3125 Z " fill="#4E4E4E" transform="translate(138.9375,120.6875)"/>
<path d="M0 0 C1.8871875 0.0309375 1.8871875 0.0309375 3.8125 0.0625 C3.8125 0.7225 3.8125 1.3825 3.8125 2.0625 C3.19761719 2.16046875 2.58273438 2.2584375 1.94921875 2.359375 C0.73685547 2.58367187 0.73685547 2.58367187 -0.5 2.8125 C-1.30050781 2.95171875 -2.10101563 3.0909375 -2.92578125 3.234375 C-5.854148 4.30659219 -6.591459 5.39888242 -8.1875 8.0625 C-8.69048455 10.88904456 -8.69048455 10.88904456 -8.69921875 14.0234375 C-8.73515137 15.20744141 -8.77108398 16.39144531 -8.80810547 17.61132812 C-8.83018066 18.87396484 -8.85225586 20.13660156 -8.875 21.4375 C-8.90480957 22.72849609 -8.93461914 24.01949219 -8.96533203 25.34960938 C-9.02230221 27.98651474 -9.07243174 30.62357677 -9.11572266 33.26074219 C-9.18143339 36.74117586 -9.29209903 40.21663468 -9.41796875 43.6953125 C-9.46805365 45.65099374 -9.51634941 47.60672196 -9.5625 49.5625 C-9.61990356 50.90320557 -9.61990356 50.90320557 -9.6784668 52.27099609 C-9.73259819 56.45580066 -9.55606703 58.49979667 -7.21484375 62.07421875 C-3.25707674 64.67357798 -0.02392228 65.05156283 4.625 65.375 C5.80739258 65.48424805 5.80739258 65.48424805 7.01367188 65.59570312 C8.94490334 65.77126962 10.87857397 65.91964108 12.8125 66.0625 C12.8125 65.4025 12.8125 64.7425 12.8125 64.0625 C17.07771644 64.62758312 19.81782324 66.12030317 23.375 68.5 C29.00425691 72.73895222 29.00425691 72.73895222 35.5625 73.6875 C36.305 73.48125 37.0475 73.275 37.8125 73.0625 C37.503125 72.485 37.19375 71.9075 36.875 71.3125 C35.88666636 69.21955816 35.2956387 67.31714725 34.8125 65.0625 C34.1525 65.0625 33.4925 65.0625 32.8125 65.0625 C32.8125 64.4025 32.8125 63.7425 32.8125 63.0625 C31.1625 62.7325 29.5125 62.4025 27.8125 62.0625 C27.3175 60.0825 27.3175 60.0825 26.8125 58.0625 C27.36679688 58.35125 27.92109375 58.64 28.4921875 58.9375 C29.21664062 59.30875 29.94109375 59.68 30.6875 60.0625 C31.40679687 60.43375 32.12609375 60.805 32.8671875 61.1875 C34.76098977 62.19923746 34.76098977 62.19923746 36.8125 62.0625 C37.4725 60.4125 38.1325 58.7625 38.8125 57.0625 C56.1375 57.5575 56.1375 57.5575 73.8125 58.0625 C73.8125 56.4125 73.8125 54.7625 73.8125 53.0625 C74.35519531 52.86914062 74.89789063 52.67578125 75.45703125 52.4765625 C76.53017578 52.08597656 76.53017578 52.08597656 77.625 51.6875 C78.33269531 51.43226563 79.04039062 51.17703125 79.76953125 50.9140625 C82.06023359 50.0359231 82.06023359 50.0359231 84.8125 48.0625 C87.5 47.9375 87.5 47.9375 89.8125 48.0625 C90.75971072 50.66732949 91.11472393 52.36924701 89.98828125 54.953125 C88.98313275 56.68832873 87.9018855 58.37890423 86.8125 60.0625 C86.1525 60.0625 85.4925 60.0625 84.8125 60.0625 C84.85375 61.155625 84.895 62.24875 84.9375 63.375 C84.8125 67.0625 84.8125 67.0625 82.8125 70.0625 C80.4296875 70.57421875 80.4296875 70.57421875 77.6875 70.75 C76.77742187 70.81574219 75.86734375 70.88148438 74.9296875 70.94921875 C73.88167969 71.00529297 73.88167969 71.00529297 72.8125 71.0625 C74.43740954 71.08948189 76.06244633 71.10888757 77.6875 71.125 C78.59242188 71.13660156 79.49734375 71.14820313 80.4296875 71.16015625 C82.8293585 71.22499257 82.8293585 71.22499257 84.8125 70.0625 C85.65991068 67.50695783 86.28421926 64.92484081 86.93359375 62.3125 C87.36865234 61.19875 87.36865234 61.19875 87.8125 60.0625 C91.50054023 58.83315326 94.53117953 59.27450037 98.3125 59.69921875 C99.05654083 59.77843567 99.80058167 59.85765259 100.56716919 59.93927002 C102.98336644 60.20055694 105.39797223 60.47373108 107.8125 60.75 C108.63006775 60.84241974 109.4476355 60.93483948 110.28997803 61.03005981 C149.21909259 65.46909259 149.21909259 65.46909259 156.8125 73.0625 C157.25 75.375 157.25 75.375 156.8125 78.0625 C152.2757543 81.72323358 147.79281176 83.23541139 142.1875 84.625 C141.35629639 84.83552002 140.52509277 85.04604004 139.66870117 85.26293945 C122.66420161 89.41555343 105.24508106 90.95150405 87.8125 92.0625 C87.14081787 92.1062677 86.46913574 92.1500354 85.77709961 92.19512939 C71.81933779 93.07881132 57.8866172 93.217687 43.90380859 93.19287109 C40.31733984 93.18750724 36.73099626 93.19285369 33.14453125 93.19921875 C21.07938294 93.20238521 9.07057413 93.01153261 -2.97363281 92.28295898 C-9.04274657 91.92859303 -15.11001629 91.97194147 -21.1875 92.0625 C-21.1875 91.4025 -21.1875 90.7425 -21.1875 90.0625 C-21.76870605 90.08207764 -22.34991211 90.10165527 -22.94873047 90.12182617 C-29.88384783 90.25081035 -36.4762304 89.49601962 -43.3125 88.375 C-44.40328857 88.19783447 -45.49407715 88.02066895 -46.61791992 87.83813477 C-69.86494226 83.86954943 -69.86494226 83.86954943 -76.1875 78.0625 C-76.9375 75.6875 -76.9375 75.6875 -76.1875 73.0625 C-65.08413764 63.57837799 -46.67180167 63.06843806 -32.6875 61.3125 C-30.9777528 61.09070373 -29.26811641 60.86805158 -27.55859375 60.64453125 C-23.43610022 60.10736032 -19.3123031 59.58162531 -15.1875 59.0625 C-15.5175 58.4025 -15.8475 57.7425 -16.1875 57.0625 C-16.21576143 55.31249375 -16.17549533 53.56117222 -16.1015625 51.8125 C-16.05845947 50.73726074 -16.01535645 49.66202148 -15.97094727 48.55419922 C-15.91865967 47.40193848 -15.86637207 46.24967773 -15.8125 45.0625 C-15.762146 43.89090332 -15.71179199 42.71930664 -15.65991211 41.51220703 C-15.55620883 39.14115087 -15.4496984 36.77021576 -15.34033203 34.39941406 C-15.20626803 31.47227865 -15.08374675 28.54496637 -14.96484375 25.6171875 C-14.8941943 24.05724766 -14.82265322 22.4973478 -14.75 20.9375 C-14.70963623 19.90302734 -14.70963623 19.90302734 -14.66845703 18.84765625 C-14.36718753 13.00100993 -14.02143085 6.89643085 -9.75 2.625 C-6.37572592 0.56751581 -3.88009982 -0.06360819 0 0 Z " fill="#2A2C51" transform="translate(93.1875,245.9375)"/>
<path d="M0 0 C0 1.65 0 3.3 0 5 C-2.64 5 -5.28 5 -8 5 C-7.9278125 5.69738281 -7.855625 6.39476562 -7.78125 7.11328125 C-6.64366501 20.05331054 -6.90872414 33.02197747 -7 46 C-6.06027344 46.09087891 -6.06027344 46.09087891 -5.1015625 46.18359375 C-4.28429687 46.26738281 -3.46703125 46.35117188 -2.625 46.4375 C-1.81289062 46.51871094 -1.00078125 46.59992188 -0.1640625 46.68359375 C2 47 2 47 4 48 C3.67 47.34 3.34 46.68 3 46 C2.91097507 44.64154807 2.88239868 43.27884026 2.88647461 41.91748047 C2.88655014 41.07675995 2.88662567 40.23603943 2.88670349 39.36984253 C2.89186478 38.46146637 2.89702606 37.55309021 2.90234375 36.6171875 C2.9037587 35.68778351 2.90517365 34.75837952 2.90663147 33.80081177 C2.91223947 30.82550876 2.92479332 27.85028036 2.9375 24.875 C2.94251397 22.86067817 2.94707705 20.84635516 2.95117188 18.83203125 C2.9622115 13.88799198 2.97948151 8.94400865 3 4 C3.99 4 4.98 4 6 4 C7.04627259 19.33910354 7.11204255 34.62948541 7 50 C8.42928833 50.19360107 8.42928833 50.19360107 9.88745117 50.39111328 C13 51 13 51 14.80078125 52.7421875 C18.4979366 59.70295556 18.31280647 68.30691592 18 76 C17.98066406 76.71849121 17.96132812 77.43698242 17.94140625 78.17724609 C17.8729218 80.68146059 17.78247578 83.18415842 17.6875 85.6875 C17.65402466 86.89986328 17.65402466 86.89986328 17.61987305 88.13671875 C17.37743023 93.4606098 16.30372017 97.20058298 14 102 C13.43316246 104.73112634 13 107.21645625 13 110 C14.65 110.33 16.3 110.66 18 111 C18 111.66 18 112.32 18 113 C18.66 113 19.32 113 20 113 C21.38938077 114.96147874 22.7260411 116.96166576 24 119 C23.34 120.32 22.68 121.64 22 123 C15.74258536 122.86396925 12.39562003 120.40889443 7.4453125 116.72265625 C4.40517659 114.58096306 1.47528083 113.28434292 -2 112 C-2 112.66 -2 113.32 -2 114 C-18.1902957 114.53570831 -18.1902957 114.53570831 -23.203125 110.01171875 C-25.7348556 105.76831812 -25.47504876 102.34806038 -25.3125 97.5 C-25.28494629 96.09053101 -25.28494629 96.09053101 -25.25683594 94.65258789 C-25.2119487 92.57822811 -25.15723689 90.50406453 -25.09423828 88.43017578 C-24.99210118 84.7124913 -24.94615954 80.99615168 -24.90234375 77.27734375 C-24.85361918 74.66402334 -24.8028605 72.05074002 -24.75 69.4375 C-24.73622314 68.18324219 -24.72244629 66.92898438 -24.70825195 65.63671875 C-24.67562256 64.4559375 -24.64299316 63.27515625 -24.609375 62.05859375 C-24.58842773 61.00986084 -24.56748047 59.96112793 -24.54589844 58.88061523 C-23.86913381 55.30944088 -22.48791363 53.60346133 -20 51 C-17.04335481 49.5216774 -14.25770263 49.93967217 -11 50 C-11.00785522 48.54932129 -11.00785522 48.54932129 -11.01586914 47.06933594 C-11.03419785 43.42383783 -11.04553207 39.77834364 -11.05493164 36.1328125 C-11.059909 34.5657482 -11.06669329 32.99868842 -11.07543945 31.43164062 C-11.12544049 22.23144947 -10.99146255 13.16124808 -10 4 C-9.34 4 -8.68 4 -8 4 C-8 3.34 -8 2.68 -8 2 C-5.09399739 0.74335022 -3.20395416 0 0 0 Z " fill="#F7931F" transform="translate(108,198)"/>
<path d="M0 0 C-1.74815486 5.88403342 -3.96625096 11.1090061 -7.01171875 16.4453125 C-9.80052199 23.65431376 -6.90820567 30.05310883 -4.05078125 36.73828125 C-0.77407148 43.85089476 3.54044711 50.39140198 7.73706055 56.98486328 C12.810633 65.08021744 12.810633 65.08021744 13.4375 68.125 C13.93298026 70.33971831 13.93298026 70.33971831 16.5625 72.4375 C19 75 19 75 19.625 77.5625 C19 80 19 80 16.6875 81.6875 C13.19481882 84.69283032 12.77668663 87.3669689 11.7734375 91.7578125 C11 94 11 94 8 96 C5.58984375 96.265625 5.58984375 96.265625 2.9375 96.25 C2.05964844 96.25515625 1.18179688 96.2603125 0.27734375 96.265625 C-2 96 -2 96 -4 94 C-2.948125 94.020625 -1.89625 94.04125 -0.8125 94.0625 C2.32704904 94.01103198 4.96883396 93.73482813 8 93 C8.66 90.03 9.32 87.06 10 84 C10.66 84 11.32 84 12 84 C13.27253436 80.35206816 14.32829194 76.8063457 15 73 C11.24579153 72.67743158 11.24579153 72.67743158 8.0625 74.5 C5.3050831 76.50539411 3.32679926 76.22682722 0 76 C-0.25974609 75.29117676 -0.51949219 74.58235352 -0.78710938 73.85205078 C-2.08240882 70.80621984 -3.64174992 68.16661668 -5.40625 65.3671875 C-6.06753906 64.31402344 -6.72882813 63.26085937 -7.41015625 62.17578125 C-8.09980469 61.08652344 -8.78945312 59.99726563 -9.5 58.875 C-10.18964844 57.77800781 -10.87929687 56.68101562 -11.58984375 55.55078125 C-15.2445508 49.74283396 -15.2445508 49.74283396 -19 44 C-19.4125 45.16273438 -19.825 46.32546875 -20.25 47.5234375 C-24.34556077 58.92504694 -28.93798408 69.99504591 -34 81 C-34.66 81 -35.32 81 -36 81 C-36.66 82.98 -37.32 84.96 -38 87 C-45.57142857 85.14285714 -45.57142857 85.14285714 -48 82 C-46.91929093 78.48769551 -45.64970564 75.15004464 -44.125 71.8125 C-40.5249099 63.85724473 -37.17475669 55.77634837 -36.5703125 47.0078125 C-36.49683594 46.05519531 -36.42335937 45.10257812 -36.34765625 44.12109375 C-36.19983809 42.1320319 -36.0591508 40.14242661 -35.92578125 38.15234375 C-35.49330935 32.72078989 -34.78830454 28.79498194 -32 24 C-31.64827183 20.62340955 -31.83912347 18.44241045 -33 15.25 C-34.36806155 10.80379995 -34.16418347 6.61537966 -34 2 C-32.14375 2.309375 -32.14375 2.309375 -30.25 2.625 C-27.71201317 3.0479978 -26.45797193 3.23606366 -24.14379883 2.04321289 C-21.84748078 0.92578128 -20.0880133 0.59864064 -17.55859375 0.33203125 C-16.72779297 0.24373047 -15.89699219 0.15542969 -15.04101562 0.06445312 C-14.18185547 -0.01869141 -13.32269531 -0.10183594 -12.4375 -0.1875 C-11.57447266 -0.28224609 -10.71144531 -0.37699219 -9.82226562 -0.47460938 C-3.38846261 -1.12948754 -3.38846261 -1.12948754 0 0 Z " fill="#2BA8DC" transform="translate(168,222)"/>
<path d="M0 0 C2.93847653 -0.107834 5.87301151 -0.18721916 8.8125 -0.25 C9.64587891 -0.28351563 10.47925781 -0.31703125 11.33789062 -0.3515625 C13.6231185 -0.38827299 15.74533604 -0.37878813 18 0 C19.828125 1.89453125 19.828125 1.89453125 21 4 C22.88385423 5.13200314 22.88385423 5.13200314 24.9375 5.9375 C28.70184017 7.73663317 30.9166905 9.25004291 33 13 C33.34010126 15.26734176 33.50516764 17.51375422 33.66015625 19.80078125 C34.17408718 23.12656418 36.06465823 25.30225086 38 28 C40.43864658 34.09661645 40.62231673 40.51143295 40 47 C39.36658584 48.34944756 38.70221503 49.68504134 38 51 C37.66266461 53.06150471 37.66266461 53.06150471 37.5625 55.125 C37.2840625 57.043125 37.2840625 57.043125 37 59 C33.31912647 61.45391569 30.55644412 61.22802759 26.3125 61.125 C25.61060547 61.11597656 24.90871094 61.10695312 24.18554688 61.09765625 C22.45688475 61.07413704 20.72839855 61.03826713 19 61 C18.67 58.36 18.34 55.72 18 53 C17.52949219 53.433125 17.05898437 53.86625 16.57421875 54.3125 C15.95160156 54.869375 15.32898438 55.42625 14.6875 56 C14.07261719 56.556875 13.45773438 57.11375 12.82421875 57.6875 C11 59 11 59 8 59 C8 58.34 8 57.68 8 57 C7.01 57.66 6.02 58.32 5 59 C2.20476326 59.34940459 0.6351646 59.37233787 -1.8125 57.9375 C-3.68147675 54.88811689 -3.36192054 52.49856519 -3 49 C-1.75 46.125 -1.75 46.125 0 44 C1.8125 43.4375 1.8125 43.4375 4 43 C6.02456848 41.70427617 8.02678947 40.3726682 10 39 C10.99 38.505 10.99 38.505 12 38 C10.65731636 34.51526757 9.13966904 31.19804045 7.4375 27.875 C5.26976396 23.64244715 3.87017956 20.34324554 3.90234375 15.55078125 C3.90556641 14.70322266 3.90878906 13.85566406 3.91210938 12.98242188 C3.92048828 12.10134766 3.92886719 11.22027344 3.9375 10.3125 C3.94201172 9.41982422 3.94652344 8.52714844 3.95117188 7.60742188 C3.96295017 5.40488013 3.97939836 3.20247401 4 1 C2.68 0.67 1.36 0.34 0 0 Z " fill="#525251" transform="translate(150,158)"/>
<path d="M0 0 C2.5 1.75 2.5 1.75 5 4 C5 5.32 5 6.64 5 8 C5.65226562 7.39929688 6.30453125 6.79859375 6.9765625 6.1796875 C7.85054688 5.41914063 8.72453125 4.65859375 9.625 3.875 C10.48351562 3.10929688 11.34203125 2.34359375 12.2265625 1.5546875 C15 0 15 0 18.15625 0.62890625 C21.73194609 2.35290258 23.65850595 3.76322882 26 7 C27.00474643 11.7354136 26.50658681 15.07416893 24.1875 19.3125 C23.465625 20.199375 22.74375 21.08625 22 22 C21.4225 22.78375 20.845 23.5675 20.25 24.375 C19.8375 24.91125 19.425 25.4475 19 26 C22.00936046 31.87792389 22.00936046 31.87792389 27.3125 35.5 C28.199375 35.665 29.08625 35.83 30 36 C29.66529544 39.01234107 28.73891115 40.34555877 26.875 42.8125 C24 45 24 45 20.5625 45.1875 C15.95141674 43.65047225 14.16954534 41.63338125 11 38 C10.39671875 38.51691406 9.7934375 39.03382813 9.171875 39.56640625 C8.37265625 40.22511719 7.5734375 40.88382813 6.75 41.5625 C5.96109375 42.22378906 5.1721875 42.88507813 4.359375 43.56640625 C2 45 2 45 -0.109375 45.08984375 C-3.30222728 43.24933593 -3.79720307 41.51027744 -5 38 C-5.4953866 33.54523411 -5.60257571 29.10414965 -5.6875 24.625 C-5.73874023 22.80548828 -5.73874023 22.80548828 -5.79101562 20.94921875 C-5.87322375 17.96623819 -5.94246526 14.98354158 -6 12 C-7.65 11.67 -9.3 11.34 -11 11 C-9.52202738 7.32943063 -7.52384523 5.58914217 -4.375 3.25 C-3.55773437 2.63640625 -2.74046875 2.0228125 -1.8984375 1.390625 C-0.95871094 0.70226562 -0.95871094 0.70226562 0 0 Z M6 13 C4.66265821 20.27896031 4.69135952 27.72977511 6 35 C7.32 34.67 8.64 34.34 10 34 C9.67 33.236875 9.34 32.47375 9 31.6875 C8 29 8 29 8 26 C9.62449243 24.29220027 11.29220027 22.62449243 13 21 C14.38125018 18.23749964 14.19079306 16.05268901 14 13 C13.34 12.34 12.68 11.68 12 11 C8.81509993 10.7226499 8.81509993 10.7226499 6 13 Z " fill="#2A2B4F" transform="translate(249,166)"/>
<path d="M0 0 C3.26546345 3.51419993 5.11172794 7.08982483 6.9375 11.5 C7.19200928 12.10295898 7.44651855 12.70591797 7.70874023 13.32714844 C9.91859963 18.61869084 11.81759583 24.0125589 13.62890625 29.453125 C14.80644518 32.21750306 14.80644518 32.21750306 17.65234375 33.359375 C18.42707031 33.57078125 19.20179688 33.7821875 20 34 C20 38 20 38 18.42578125 39.703125 C17.72839844 40.21359375 17.03101563 40.7240625 16.3125 41.25 C15.62800781 41.77078125 14.94351563 42.2915625 14.23828125 42.828125 C12 44 12 44 7 44 C5.02 40.37 3.04 36.74 1 33 C-1.97 33 -4.94 33 -8 33 C-8.185625 34.010625 -8.37125 35.02125 -8.5625 36.0625 C-10.28089954 42.08299201 -15.31321858 45.89079925 -20.1875 49.5 C-23 51 -23 51 -25.17578125 50.59375 C-25.77777344 50.3978125 -26.37976563 50.201875 -27 50 C-26.60167969 49.53851563 -26.20335937 49.07703125 -25.79296875 48.6015625 C-20.04016636 41.51903693 -18.35274314 34.6603971 -17.0625 25.75 C-16.28778451 20.7687715 -15.36886207 17.76519878 -12 14 C-9.75 12.625 -9.75 12.625 -8 12 C-8.33 11.34 -8.66 10.68 -9 10 C-12.46941546 10.45822468 -15.67395049 10.89131683 -19 12 C-19.33 10.68 -19.66 9.36 -20 8 C-18.61019248 6.86756424 -17.21285323 5.74436881 -15.8125 4.625 C-15.03519531 3.99851563 -14.25789063 3.37203125 -13.45703125 2.7265625 C-8.8725119 -0.49499164 -5.46460203 -1.74402192 0 0 Z M-5 15 C-5.66 18.3 -6.32 21.6 -7 25 C-5.02 25 -3.04 25 -1 25 C-1.52464905 20.38308839 -2.07490914 18.90012114 -5 15 Z " fill="#2A2B4F" transform="translate(309,167)"/>
<path d="M0 0 C1.62870386 1.62870386 1.28853987 3.37038591 1.375 5.625 C1.27355274 16.75521419 -3.41159696 30.43007102 -11.36328125 38.35546875 C-17.8342494 43.92529467 -17.8342494 43.92529467 -21.62109375 44.16796875 C-24.65224637 42.67976738 -25.26376255 40.93720176 -26.37011719 37.83081055 C-26.59860352 37.12351807 -26.82708984 36.41622559 -27.0625 35.6875 C-27.31290039 34.96925049 -27.56330078 34.25100098 -27.82128906 33.51098633 C-28.56993494 31.3474574 -29.28920135 29.17622266 -30 27 C-30.39574219 25.80375 -30.79148437 24.6075 -31.19921875 23.375 C-31.85928831 21.3727072 -32.50814424 19.36664661 -33.140625 17.35546875 C-33.97415951 14.78317905 -33.97415951 14.78317905 -36 12 C-38.56282742 11.27034634 -38.56282742 11.27034634 -41 11 C-41.33 10.01 -41.66 9.02 -42 8 C-40.2633385 6.46395285 -38.51017245 4.94654837 -36.75 3.4375 C-35.77546875 2.59058594 -34.8009375 1.74367187 -33.796875 0.87109375 C-31 -1 -31 -1 -28.828125 -1.02734375 C-24.69334188 1.296263 -23.37605541 5.28186086 -21.9921875 9.60546875 C-21.64542969 10.67087891 -21.29867188 11.73628906 -20.94140625 12.83398438 C-20.58949219 13.94064453 -20.23757813 15.04730469 -19.875 16.1875 C-19.16660028 18.39014071 -18.45579531 20.59200983 -17.7421875 22.79296875 C-17.4313623 23.7677417 -17.12053711 24.74251465 -16.80029297 25.74682617 C-16.20290201 27.9403167 -16.20290201 27.9403167 -15 29 C-11.75340288 19.16600283 -11.75340288 19.16600283 -10 9 C-13.37817425 8.15545644 -15.67465243 7.89155081 -19 9 C-19 5 -19 5 -16.4375 2.375 C-11.04023852 -1.72691872 -6.28729505 -2.84425252 0 0 Z " fill="#2A2B4F" transform="translate(370,167)"/>
<path d="M0 0 C0.763125 0.33 1.52625 0.66 2.3125 1 C4.99069135 2.17436686 4.99069135 2.17436686 8 2 C8.66 1.34 9.32 0.68 10 0 C12.91952568 0.01748219 15.72297885 0.13944633 18.625 0.375 C19.42679687 0.43171875 20.22859375 0.4884375 21.0546875 0.546875 C23.03715498 0.68847982 25.01869051 0.84302259 27 1 C24.98683196 5.49542378 22.23271028 8.46697455 18 11 C13.81377238 11.83412729 10.11612605 11.02903151 6 10 C6 12.97 6 15.94 6 19 C11.28 19 16.56 19 22 19 C21 24 21 24 19.82421875 25.80078125 C17.14117632 27.56458002 14.98302406 27.28977497 11.8125 27.1875 C10.72582031 27.16042969 9.63914062 27.13335937 8.51953125 27.10546875 C7.27236328 27.05326172 7.27236328 27.05326172 6 27 C6 29.31 6 31.62 6 34 C8.04159095 34.0272616 10.08328963 34.04651345 12.125 34.0625 C13.26195312 34.07410156 14.39890625 34.08570313 15.5703125 34.09765625 C18.8129156 34.005327 21.81932612 33.61389906 25 33 C25 36.93355516 23.910331 37.83911112 21.25 40.6875 C14.61649715 46.62881125 7.52163063 45.7814775 -0.9765625 45.31640625 C-2.31818212 45.21714594 -3.65956446 45.11414189 -5 45 C-5.33 44.34 -5.66 43.68 -6 43 C-5.67 42.34 -5.34 41.68 -5 41 C-4.91440882 38.82175039 -4.89286588 36.64084745 -4.90234375 34.4609375 C-4.90556641 33.15898437 -4.90878906 31.85703125 -4.91210938 30.515625 C-4.92046534 29.13541601 -4.92893029 27.75520768 -4.9375 26.375 C-4.94251499 24.98698074 -4.9470779 23.59895978 -4.95117188 22.2109375 C-4.96299024 18.80724868 -4.97946566 15.40364561 -5 12 C-6.65 11.67 -8.3 11.34 -10 11 C-8.55218207 7.55571735 -6.72305391 5.63869038 -3.875 3.25 C-3.15054687 2.63640625 -2.42609375 2.0228125 -1.6796875 1.390625 C-0.84824219 0.70226562 -0.84824219 0.70226562 0 0 Z " fill="#2A2C4F" transform="translate(384,166)"/>
<path d="M0 0 C0 3.23219989 -0.88488099 5.05393525 -2.34375 7.890625 C-4.96818684 16.32631485 -0.72581193 24.56003492 3 32 C6.03826307 37.45654235 9.38479422 42.7179883 12.73706055 47.98486328 C17.810633 56.08021744 17.810633 56.08021744 18.4375 59.125 C18.93298026 61.33971831 18.93298026 61.33971831 21.5625 63.4375 C24 66 24 66 24.625 68.5625 C24 71 24 71 21.6875 72.6875 C18.19481882 75.69283032 17.77668663 78.3669689 16.7734375 82.7578125 C16 85 16 85 13 87 C10.58984375 87.265625 10.58984375 87.265625 7.9375 87.25 C7.05964844 87.25515625 6.18179688 87.2603125 5.27734375 87.265625 C3 87 3 87 1 85 C2.051875 85.020625 3.10375 85.04125 4.1875 85.0625 C7.32704904 85.01103198 9.96883396 84.73482813 13 84 C13.66 81.03 14.32 78.06 15 75 C15.66 75 16.32 75 17 75 C18.27253436 71.35206816 19.32829194 67.8063457 20 64 C16.24579153 63.67743158 16.24579153 63.67743158 13.0625 65.5 C10.3050831 67.50539411 8.32679926 67.22682722 5 67 C4.74025391 66.29117676 4.48050781 65.58235352 4.21289062 64.85205078 C2.91759118 61.80621984 1.35825008 59.16661668 -0.40625 56.3671875 C-1.06753906 55.31402344 -1.72882813 54.26085937 -2.41015625 53.17578125 C-3.09980469 52.08652344 -3.78945312 50.99726563 -4.5 49.875 C-5.18964844 48.77800781 -5.87929687 47.68101562 -6.58984375 46.55078125 C-10.2445508 40.74283396 -10.2445508 40.74283396 -14 35 C-14.66 35.99 -15.32 36.98 -16 38 C-15.55668597 32.45857464 -14.2029747 29.48416458 -11 25 C-6.96290664 18.46231897 -5.50338364 11.4713611 -4 4 C-3.34 4 -2.68 4 -2 4 C-1.34 2.68 -0.68 1.36 0 0 Z " fill="#1E7797" transform="translate(163,231)"/>
<path d="M0 0 C1.01964844 -0.01675781 2.03929687 -0.03351563 3.08984375 -0.05078125 C7.48841592 0.48675779 10.11586037 2.13736115 12.875 5.5625 C15.34593657 11.28466889 14.08474678 16.43439772 12.03125 22.0625 C8.7423898 29.70114304 3.31643888 35.95041024 -1.9375 42.3125 C-2.5975 41.9825 -3.2575 41.6525 -3.9375 41.3125 C-4.53105614 38.66389573 -4.67959269 36.02052678 -4.9375 33.3125 C-5.5975 33.3125 -6.2575 33.3125 -6.9375 33.3125 C-6.9375 34.9625 -6.9375 36.6125 -6.9375 38.3125 C-8.95154471 35.29143293 -9.2919069 33.78256291 -9.9375 30.3125 C-10.27265625 29.45527344 -10.6078125 28.59804687 -10.953125 27.71484375 C-12.18758079 23.44813345 -12.23070747 19.60186349 -12.1875 15.1875 C-12.19523437 14.38957031 -12.20296875 13.59164062 -12.2109375 12.76953125 C-12.18557141 5.17238832 -12.18557141 5.17238832 -9.9375 2.3125 C-6.74820929 0.07502433 -3.82778649 0.01448091 0 0 Z " fill="#613B18" transform="translate(138.9375,120.6875)"/>
<path d="M0 0 C2.08314182 0.18961594 4.16648145 0.37706942 6.25 0.5625 C7.75046875 0.70171875 7.75046875 0.70171875 9.28125 0.84375 C12.32288152 1.01855641 15.04347832 0.73913042 18 0 C18 4 18 4 16.75 5.66796875 C16.1725 6.16941406 15.595 6.67085937 15 7.1875 C14.443125 7.69667969 13.88625 8.20585937 13.3125 8.73046875 C11 10 11 10 3 11 C3 18.92 3 26.84 3 35 C4.65 35.33 6.3 35.66 8 36 C2.20689655 43.24137931 2.20689655 43.24137931 -1 45 C-3.0625 45 -3.0625 45 -5 44 C-8.0561077 39.95420685 -8.35685286 36.95347435 -8.29296875 31.94921875 C-8.28872391 31.29041214 -8.28447906 30.63160553 -8.28010559 29.95283508 C-8.26341196 27.86396115 -8.22578058 25.77607861 -8.1875 23.6875 C-8.17244097 22.26498797 -8.15875469 20.8424607 -8.14648438 19.41992188 C-8.11354003 15.94629649 -8.06182408 12.47324513 -8 9 C-13.94 9.495 -13.94 9.495 -20 10 C-18.71877508 4.87510032 -16.91100311 3.90750116 -12.5859375 1.19921875 C-8.3074851 -0.78489739 -4.60599945 -0.48272483 0 0 Z " fill="#2A2B4F" transform="translate(220,166)"/>
<path d="M0 0 C2.31051124 0.9242045 3.71693372 1.57792906 5.12060547 3.67089844 C6.27205497 6.72054536 6.22492722 9.25800612 6.1953125 12.515625 C6.18886719 13.76601562 6.18242187 15.01640625 6.17578125 16.3046875 C6.15902344 17.60664063 6.14226562 18.90859375 6.125 20.25 C6.11597656 21.56742188 6.10695313 22.88484375 6.09765625 24.2421875 C6.07408533 27.49497462 6.04118022 30.74739589 6 34 C7.74991334 34.02715383 9.49994945 34.04646551 11.25 34.0625 C12.22453125 34.07410156 13.1990625 34.08570313 14.203125 34.09765625 C16.65758678 34.01195577 18.66168914 33.70706066 21 33 C21 37.27873976 20.78589499 38.08265622 18.1875 41.25 C14.31295998 45.06102297 11.08337902 45.44835524 5.8840332 45.57128906 C1.91932532 45.47328731 -2.04018719 45.2199896 -6 45 C-5.67 34.11 -5.34 23.22 -5 12 C-6.65 12 -8.3 12 -10 12 C-10 10.68 -10 9.36 -10 8 C-7.8125 5.859375 -7.8125 5.859375 -5 3.75 C-4.071875 3.04359375 -3.14375 2.3371875 -2.1875 1.609375 C-1.1046875 0.81273437 -1.1046875 0.81273437 0 0 Z " fill="#2A2C4F" transform="translate(424,166)"/>
<path d="M0 0 C5.05510556 0.44603873 7.40166738 2.64700824 11 6 C12.12779369 8.25558738 12.16348264 9.74650832 12.3125 12.25 C12.76266431 16.79520744 14.3264919 19.27329174 17 23 C19.43864658 29.09661645 19.62231673 35.51143295 19 42 C18.36658584 43.34944756 17.70221503 44.68504134 17 46 C16.66266461 48.06150471 16.66266461 48.06150471 16.5625 50.125 C16.376875 51.40375 16.19125 52.6825 16 54 C12.52614567 56.31590289 11.03569994 56.26991835 6.9375 56.25 C5.87402344 56.25515625 4.81054688 56.2603125 3.71484375 56.265625 C1 56 1 56 -1 54 C-1.56878391 50.61723256 -1.53572059 47.38575412 -1 44 C1.3125 41.1875 1.3125 41.1875 4 39 C7.67842429 33.35099126 8.56964996 29.69533783 8 23 C7.27550237 19.82386595 6.2394903 16.80836873 5.125 13.75 C4.85558594 12.97398437 4.58617187 12.19796875 4.30859375 11.3984375 C2.96577738 7.55994779 1.5493943 3.76066577 0 0 Z " fill="#DEDDD6" transform="translate(171,163)"/>
<path d="M0 0 C2.875 0.75 2.875 0.75 6 2 C6.33 2.680625 6.66 3.36125 7 4.0625 C7.33 4.701875 7.66 5.34125 8 6 C9.98985949 6.38932033 11.99199544 6.71887936 14 7 C16.3125 8.125 16.3125 8.125 18 10 C19.40963855 16.18072289 19.40963855 16.18072289 18 19 C17.23333008 18.9685791 16.46666016 18.9371582 15.67675781 18.90478516 C12.20147232 18.78002862 8.72665729 18.70201456 5.25 18.625 C4.0434375 18.57472656 2.836875 18.52445313 1.59375 18.47265625 C-1.7024861 18.41771898 -4.7500871 18.44226486 -8 19 C-11.45459342 22.37607993 -12.487539 25.67315718 -13.25 30.375 C-13.39953125 31.24898437 -13.5490625 32.12296875 -13.703125 33.0234375 C-13.80109375 33.67570312 -13.8990625 34.32796875 -14 35 C-14.66 35 -15.32 35 -16 35 C-16 33.35 -16 31.7 -16 30 C-16.99 29.67 -17.98 29.34 -19 29 C-21.33822147 26.79539119 -22.86128992 25.15236064 -23.25390625 21.890625 C-23.25042157 19.92526323 -23.1329399 17.96086359 -23 16 C-22.34 16 -21.68 16 -21 16 C-20.67 15.34 -20.34 14.68 -20 14 C-19.34 14 -18.68 14 -18 14 C-17.34 16.64 -16.68 19.28 -16 22 C-9.43854467 15.82451263 -4.84947947 9.12667888 -1 1 C-0.67 0.67 -0.34 0.34 0 0 Z " fill="#1E3328" transform="translate(152,140)"/>
<path d="M0 0 C0.33 0 0.66 0 1 0 C1.7873017 5.45618387 2.06630138 10.62324896 1.9375 16.125 C1.83360171 23.93035939 2.63360292 31.30181645 4 39 C-1.72040011 39.8320582 -7.22240116 40.12036664 -13 40 C-13 40.99 -13 41.98 -13 43 C-14.175625 42.7215625 -14.175625 42.7215625 -15.375 42.4375 C-17.97089775 41.74037734 -17.97089775 41.74037734 -20 43 C-20 41.68 -20 40.36 -20 39 C-21.1446875 39.495 -21.1446875 39.495 -22.3125 40 C-25 41 -25 41 -28 41 C-28 41.66 -28 42.32 -28 43 C-28.99 42.67 -29.98 42.34 -31 42 C-30.41909101 38.07886431 -28.74317959 35.81536852 -26 33 C-23.71211204 31.78346439 -21.43444756 30.91865946 -19 30 C-18.67 29.67 -18.34 29.34 -18 29 C-14.99941366 28.54151404 -11.99311089 28.16358611 -8.98046875 27.79296875 C-5.30981827 26.81637367 -4.07695879 26.20361096 -2 23 C-1.40281577 19.64915405 -1.34872321 16.33523699 -1.3125 12.9375 C-1.27038076 11.13403062 -1.22494983 9.33063471 -1.17578125 7.52734375 C-1.16458252 6.73062256 -1.15338379 5.93390137 -1.1418457 5.11303711 C-1 3 -1 3 0 0 Z " fill="#343434" transform="translate(128,159)"/>
<path d="M0 0 C0 1.65 0 3.3 0 5 C-2.64 5 -5.28 5 -8 5 C-7.9278125 5.69738281 -7.855625 6.39476562 -7.78125 7.11328125 C-6.64366501 20.05331054 -6.90872414 33.02197747 -7 46 C-4.03 46.33 -1.06 46.66 2 47 C2 47.99 2 48.98 2 50 C0.35 50 -1.3 50 -3 50 C0.465 50.495 0.465 50.495 4 51 C4 52.32 4 53.64 4 55 C5.32 54.01 6.64 53.02 8 52 C7.67 53.32 7.34 54.64 7 56 C4.20775927 56.08071788 1.41783434 56.14035408 -1.375 56.1875 C-2.56609375 56.22520508 -2.56609375 56.22520508 -3.78125 56.26367188 C-5.85586148 56.29004405 -7.93100865 56.15486462 -10 56 C-10.66 55.01 -11.32 54.02 -12 53 C-15.45749949 52.33323122 -15.45749949 52.33323122 -19 53 C-23.23862027 57.55567518 -22.47676952 63.58507403 -22.51171875 69.42578125 C-22.53864555 71.07987251 -22.53864555 71.07987251 -22.56611633 72.76737976 C-22.62021004 76.28238119 -22.6541129 79.79724687 -22.6875 83.3125 C-22.7206738 85.69858659 -22.75516352 88.08465527 -22.79101562 90.47070312 C-22.87593607 96.31368036 -22.94429008 102.15667519 -23 108 C-23.66 107.67 -24.32 107.34 -25 107 C-25.11606624 94.47774205 -25.03226874 81.95718029 -24.75 69.4375 C-24.73590088 68.18364502 -24.72180176 66.92979004 -24.70727539 65.63793945 C-24.67496826 64.45675537 -24.64266113 63.27557129 -24.609375 62.05859375 C-24.58842773 61.00986084 -24.56748047 59.96112793 -24.54589844 58.88061523 C-23.86913381 55.30944088 -22.48791363 53.60346133 -20 51 C-17.04335481 49.5216774 -14.25770263 49.93967217 -11 50 C-11.00785522 48.54932129 -11.00785522 48.54932129 -11.01586914 47.06933594 C-11.03419785 43.42383783 -11.04553207 39.77834364 -11.05493164 36.1328125 C-11.059909 34.5657482 -11.06669329 32.99868842 -11.07543945 31.43164062 C-11.12544049 22.23144947 -10.99146255 13.16124808 -10 4 C-9.34 4 -8.68 4 -8 4 C-8 3.34 -8 2.68 -8 2 C-5.09399739 0.74335022 -3.20395416 0 0 0 Z " fill="#C88A42" transform="translate(108,198)"/>
<path d="M0 0 C1.134375 0.020625 2.26875 0.04125 3.4375 0.0625 C14.4375 21.38208763 14.4375 21.38208763 14.4375 26.0625 C12.1275 26.0625 9.8175 26.0625 7.4375 26.0625 C6.7775 24.7425 6.1175 23.4225 5.4375 22.0625 C1.8075 22.0625 -1.8225 22.0625 -5.5625 22.0625 C-6.2225 23.3825 -6.8825 24.7025 -7.5625 26.0625 C-9.8725 26.0625 -12.1825 26.0625 -14.5625 26.0625 C-12.73521177 20.04319759 -10.45516112 14.31935097 -7.9375 8.5625 C-7.62417725 7.84384766 -7.31085449 7.12519531 -6.98803711 6.38476562 C-4.19861901 0.07365998 -4.19861901 0.07365998 0 0 Z M-0.5625 8.0625 C-2.0475 12.0225 -2.0475 12.0225 -3.5625 16.0625 C-1.2525 16.0625 1.0575 16.0625 3.4375 16.0625 C2.4475 13.4225 1.4575 10.7825 0.4375 8.0625 C0.1075 8.0625 -0.2225 8.0625 -0.5625 8.0625 Z " fill="#F33636" transform="translate(299.5625,237.9375)"/>
<path d="M0 0 C1.07765625 0.01804687 2.1553125 0.03609375 3.265625 0.0546875 C4.49539062 0.08949219 4.49539062 0.08949219 5.75 0.125 C5.75 1.115 5.75 2.105 5.75 3.125 C6.74 3.455 7.73 3.785 8.75 4.125 C8.42 5.115 8.09 6.105 7.75 7.125 C6.76 7.455 5.77 7.785 4.75 8.125 C3.40909241 8.77629797 2.07407669 9.44013275 0.75 10.125 C0.61387798 12.25436596 0.61387798 12.25436596 1.8125 14.5 C2.75 17.125 2.75 17.125 1.75 21.125 C-2.54 20.795 -6.83 20.465 -11.25 20.125 C-11.47245975 17.87635275 -11.67746557 15.62597377 -11.875 13.375 C-11.99101563 12.12203125 -12.10703125 10.8690625 -12.2265625 9.578125 C-12.24918017 6.24578767 -12.24181895 4.7400261 -10.25 2.125 C-6.96310555 -0.2291271 -3.95115776 -0.08589473 0 0 Z " fill="#603713" transform="translate(139.25,120.875)"/>
<path d="M0 0 C3.125 -0.5625 3.125 -0.5625 7 0 C9.46527449 2.74335318 11.2476366 5.76486756 13 9 C15.40072955 6.11912454 17.47291037 3.43595166 19 0 C21.31 0 23.62 0 26 0 C25.35292989 3.79254984 23.56499817 6.41748235 21.5 9.625 C18.18221192 15.14786195 16.90065749 19.5853124 17 26 C14.69 26 12.38 26 10 26 C10.020625 24.824375 10.04125 23.64875 10.0625 22.4375 C9.40396204 15.7883909 5.45651404 10.64347391 1.93359375 5.16015625 C0 2 0 2 0 0 Z " fill="#F63534" transform="translate(367,238)"/>
<path d="M0 0 C0 0.66 0 1.32 0 2 C-0.61488281 2.09796875 -1.22976562 2.1959375 -1.86328125 2.296875 C-3.07564453 2.52117187 -3.07564453 2.52117187 -4.3125 2.75 C-5.11300781 2.88921875 -5.91351563 3.0284375 -6.73828125 3.171875 C-9.666648 4.24409219 -10.403959 5.33638242 -12 8 C-12.50298455 10.82654456 -12.50298455 10.82654456 -12.51171875 13.9609375 C-12.54765137 15.14494141 -12.58358398 16.32894531 -12.62060547 17.54882812 C-12.64268066 18.81146484 -12.66475586 20.07410156 -12.6875 21.375 C-12.71730957 22.66599609 -12.74711914 23.95699219 -12.77783203 25.28710938 C-12.83480221 27.92401474 -12.88493174 30.56107677 -12.92822266 33.19824219 C-12.99393339 36.67867586 -13.10459903 40.15413468 -13.23046875 43.6328125 C-13.28055365 45.58849374 -13.32884941 47.54422196 -13.375 49.5 C-13.43240356 50.84070557 -13.43240356 50.84070557 -13.4909668 52.20849609 C-13.54509819 56.39330066 -13.36856703 58.43729667 -11.02734375 62.01171875 C-7.06957674 64.61107798 -3.83642228 64.98906283 0.8125 65.3125 C1.99489258 65.42174805 1.99489258 65.42174805 3.20117188 65.53320312 C5.13240334 65.70876962 7.06607397 65.85714108 9 66 C9 65.34 9 64.68 9 64 C13.28853112 64.57128243 16.13991377 66.09094395 19.75 68.4375 C20.71421875 69.05496094 21.6784375 69.67242187 22.671875 70.30859375 C25 72 25 72 26 74 C19.81404969 72.7331605 14.32334017 71.54889345 9 68 C6.72087062 67.54605448 6.72087062 67.54605448 4.3125 67.375 C3.50425781 67.30023438 2.69601563 67.22546875 1.86328125 67.1484375 C0.94095703 67.07496094 0.94095703 67.07496094 0 67 C-0.66 68.32 -1.32 69.64 -2 71 C-3.65 70.67 -5.3 70.34 -7 70 C-7 69.01 -7 68.02 -7 67 C-7.66 67 -8.32 67 -9 67 C-9 67.66 -9 68.32 -9 69 C-11.31 69 -13.62 69 -16 69 C-16.04241723 66.66705225 -16.04092937 64.33297433 -16 62 C-15.505 61.505 -15.505 61.505 -15 61 C-14.91705577 59.40996888 -14.9036202 57.81624727 -14.91821289 56.22412109 C-14.9247438 55.20571136 -14.93127472 54.18730164 -14.93800354 53.13803101 C-14.94943893 52.02771515 -14.96087433 50.91739929 -14.97265625 49.7734375 C-14.9853104 47.43880361 -14.99767077 45.10416811 -15.00976562 42.76953125 C-15.03453112 39.07628419 -15.0624263 35.38311977 -15.09594727 31.68994141 C-15.12624039 28.13443486 -15.1439601 24.57903237 -15.16015625 21.0234375 C-15.17361588 19.92526703 -15.1870755 18.82709656 -15.20094299 17.69564819 C-15.21921415 12.08615663 -15.07642753 7.249086 -13 2 C-9.02596742 -0.68831616 -4.62932504 -0.15692627 0 0 Z " fill="#292220" transform="translate(97,246)"/>
<path d="M0 0 C7.59 0 15.18 0 23 0 C23 1.98 23 3.96 23 6 C20.36 6 17.72 6 15 6 C15 12.6 15 19.2 15 26 C12.69 26 10.38 26 8 26 C8 19.4 8 12.8 8 6 C5.36 6 2.72 6 0 6 C0 4.02 0 2.04 0 0 Z " fill="#F03A3A" transform="translate(259,238)"/>
<path d="M0 0 C0.94721072 2.60482949 1.30222393 4.30674701 0.17578125 6.890625 C-0.82936725 8.62582873 -1.9106145 10.31640423 -3 12 C-3.66 12 -4.32 12 -5 12 C-4.95875 13.093125 -4.9175 14.18625 -4.875 15.3125 C-5 19 -5 19 -7 22 C-9.05859375 22.546875 -9.05859375 22.546875 -11.4375 22.75 C-12.21996094 22.82734375 -13.00242188 22.9046875 -13.80859375 22.984375 C-16 23 -16 23 -19 22 C-18.51066156 19.22708219 -17.89766472 16.71707305 -16.9375 14.0625 C-15.96111253 10.87296759 -15.84218806 8.31405075 -16 5 C-15.45730469 4.80664062 -14.91460937 4.61328125 -14.35546875 4.4140625 C-13.64003906 4.15367187 -12.92460937 3.89328125 -12.1875 3.625 C-11.47980469 3.36976563 -10.77210938 3.11453125 -10.04296875 2.8515625 C-2.83428446 -0.15320457 -2.83428446 -0.15320457 0 0 Z " fill="#BF272F" transform="translate(183,294)"/>
<path d="M0 0 C2.31 0 4.62 0 7 0 C7.33 6.6 7.66 13.2 8 20 C11.96 20.33 15.92 20.66 20 21 C20 22.65 20 24.3 20 26 C13.4 26 6.8 26 0 26 C0 17.42 0 8.84 0 0 Z " fill="#EB3C3D" transform="translate(319,238)"/>
<path d="M0 0 C2.31 0 4.62 0 7 0 C7 6.93 7 13.86 7 21 C11.29 21 15.58 21 20 21 C20 22.65 20 24.3 20 26 C13.4 26 6.8 26 0 26 C0 17.42 0 8.84 0 0 Z " fill="#F63737" transform="translate(345,238)"/>
<path d="M0 0 C0 3 0 3 -1.5 6.25 C-3.1455805 9.9467069 -3.37661653 12.93254148 -3 17 C-2.67 17.763125 -2.34 18.52625 -2 19.3125 C-0.44743341 23.48502272 -0.37752958 27.60565524 -1 32 C-2.875 34.625 -2.875 34.625 -5 36 C-5.66 36 -6.32 36 -7 36 C-7 36.66 -7 37.32 -7 38 C-8.485 38.495 -8.485 38.495 -10 39 C-10.99 37.02 -11.98 35.04 -13 33 C-13.99 35.475 -13.99 35.475 -15 38 C-15.33 38 -15.66 38 -16 38 C-15.55668597 32.45857464 -14.2029747 29.48416458 -11 25 C-6.96290664 18.46231897 -5.50338364 11.4713611 -4 4 C-3.34 4 -2.68 4 -2 4 C-1.34 2.68 -0.68 1.36 0 0 Z " fill="#217998" transform="translate(163,231)"/>
<path d="M0 0 C0.66 0 1.32 0 2 0 C1.83734146 0.71294724 1.67468292 1.42589447 1.50709534 2.16044617 C1.00164761 4.99077395 0.87962012 7.56082906 0.88647461 10.43286133 C0.88655014 11.49358353 0.88662567 12.55430573 0.88670349 13.64717102 C0.89186478 14.7806749 0.89702606 15.91417877 0.90234375 17.08203125 C0.9037587 18.25134689 0.90517365 19.42066254 0.90663147 20.62541199 C0.91222207 24.35446751 0.92477291 28.08346267 0.9375 31.8125 C0.94251621 34.34309809 0.94707891 36.87369712 0.95117188 39.40429688 C0.96218843 45.60288513 0.97891727 51.80143825 1 58 C-2.16115776 56.63016497 -2.9927092 56.0109362 -5 53 C-5.15112305 50.55834961 -5.15112305 50.55834961 -5.01171875 47.65234375 C-4.96539307 46.58032715 -4.91906738 45.50831055 -4.87133789 44.40380859 C-4.81067139 43.25992676 -4.75000488 42.11604492 -4.6875 40.9375 C-4.63263428 39.77041504 -4.57776855 38.60333008 -4.52124023 37.40087891 C-4.40853046 35.04062265 -4.29113269 32.68058538 -4.16894531 30.32080078 C-4.02037165 27.40042653 -3.89152065 24.48032408 -3.7734375 21.55859375 C-3.70387845 19.99736208 -3.63362313 18.4361612 -3.5625 16.875 C-3.53567139 16.185271 -3.50884277 15.49554199 -3.48120117 14.78491211 C-2.86546341 2.86546341 -2.86546341 2.86546341 0 0 Z " fill="#D78C38" transform="translate(82,250)"/>
<path d="M0 0 C0 1.65 0 3.3 0 5 C-2.64 5 -5.28 5 -8 5 C-7.9292627 5.83660156 -7.85852539 6.67320312 -7.78564453 7.53515625 C-7.08937379 16.37498019 -6.8473136 25.13112347 -6.875 34 C-6.87113281 35.26972656 -6.86726563 36.53945312 -6.86328125 37.84765625 C-6.86457031 39.07355469 -6.86585937 40.29945313 -6.8671875 41.5625 C-6.86831543 42.65691406 -6.86944336 43.75132812 -6.87060547 44.87890625 C-6.99982622 47.99580821 -7.42033217 50.93760394 -8 54 C-8.66 54 -9.32 54 -10 54 C-10.85562202 49.55875242 -11.12867695 45.3560927 -11.1328125 40.8359375 C-11.13376923 40.16261383 -11.13472595 39.48929016 -11.13571167 38.79556274 C-11.13638893 37.37526353 -11.13456646 35.95496115 -11.13037109 34.53466797 C-11.12506701 32.4019441 -11.13030531 30.26943572 -11.13671875 28.13671875 C-11.14024697 20.04934393 -10.84203351 12.05014727 -10 4 C-9.34 4 -8.68 4 -8 4 C-8 3.34 -8 2.68 -8 2 C-5.09399739 0.74335022 -3.20395416 0 0 0 Z " fill="#B6B6B7" transform="translate(108,198)"/>
<path d="M0 0 C0.3403125 0.9590625 0.3403125 0.9590625 0.6875 1.9375 C1.85250896 4.27193661 1.85250896 4.27193661 4.625 4.75 C5.40875 4.8325 6.1925 4.915 7 5 C7 5.66 7 6.32 7 7 C7.66 7 8.32 7 9 7 C10.38938077 8.96147874 11.7260411 10.96166576 13 13 C12.34 14.32 11.68 15.64 11 17 C4.74337049 16.86398632 1.33474 14.40737539 -3.62109375 10.72265625 C-6.32172893 8.76702388 -8.96636586 7.35715212 -12 6 C-12 5.34 -12 4.68 -12 4 C-11.30132812 3.79503906 -10.60265625 3.59007812 -9.8828125 3.37890625 C-8.97273438 3.10949219 -8.06265625 2.84007812 -7.125 2.5625 C-6.22007813 2.29566406 -5.31515625 2.02882813 -4.3828125 1.75390625 C-2.01724619 1.07386174 -2.01724619 1.07386174 0 0 Z " fill="#B52931" transform="translate(119,304)"/>
<path d="M0 0 C5.05510556 0.44603873 7.40166738 2.64700824 11 6 C12.12779369 8.25558738 12.16348264 9.74650832 12.3125 12.25 C12.76266431 16.79520744 14.3264919 19.27329174 17 23 C19.43864658 29.09661645 19.62231673 35.51143295 19 42 C18.37083978 43.35143614 17.70626399 44.68721159 17 46 C16.55499715 48.12593058 16.55499715 48.12593058 16.375 50.25 C16.25125 51.4875 16.1275 52.725 16 54 C14.48702818 51.59704475 13.96334031 50.36659693 14.25 47.5 C15 45 15 45 16.02734375 43.1015625 C18.81242035 37.08400743 16.75726854 30.13830332 15.046875 24.06640625 C14.1393034 21.87267377 14.1393034 21.87267377 12.078125 20.65234375 C9.84153629 19.72735318 9.84153629 19.72735318 7 21 C6.74605469 20.13117188 6.49210938 19.26234375 6.23046875 18.3671875 C5.88628906 17.21476562 5.54210937 16.06234375 5.1875 14.875 C4.85105469 13.73804688 4.51460937 12.60109375 4.16796875 11.4296875 C3.03473515 8.1019982 1.58360011 5.13089993 0 2 C0 1.34 0 0.68 0 0 Z " fill="#DDDED8" transform="translate(171,163)"/>
<path d="M0 0 C1.32 0.33 2.64 0.66 4 1 C4.87554596 3.43268781 5.09609449 4.69017812 4.3203125 7.19140625 C0.76434551 14.24523619 -3.81681517 20.06022827 -9 26 C-9.66 25.67 -10.32 25.34 -11 25 C-11.59355614 22.35139573 -11.74209269 19.70802678 -12 17 C-12.66 17 -13.32 17 -14 17 C-14 18.65 -14 20.3 -14 22 C-14.66 21.01 -15.32 20.02 -16 19 C-15.505 17.515 -15.505 17.515 -15 16 C-13.00945124 15.30562253 -11.00744615 14.64389782 -9 14 C-6.9659094 12.71927629 -4.95597184 11.39712274 -3 10 C-3.2475 9.278125 -3.495 8.55625 -3.75 7.8125 C-4 5 -4 5 -2.0625 2.1875 C-1.381875 1.465625 -0.70125 0.74375 0 0 Z " fill="#615540" transform="translate(146,137)"/>
<path d="M0 0 C0.99 0 1.98 0 3 0 C3.33631629 6.78035003 3.65611906 13.56133336 3.96435547 20.34301758 C4.07121147 22.65081486 4.18187164 24.95843923 4.29638672 27.26586914 C4.46016676 30.5792105 4.61033456 33.8929293 4.7578125 37.20703125 C4.81188263 38.2414888 4.86595276 39.27594635 4.92166138 40.3417511 C4.96185394 41.3025206 5.00204651 42.2632901 5.04345703 43.25317383 C5.08342804 44.09922684 5.12339905 44.94527985 5.1645813 45.81697083 C5 48 5 48 3 51 C2.34 51 1.68 51 1 51 C1 49.68 1 48.36 1 47 C-0.6396875 47.061875 -0.6396875 47.061875 -2.3125 47.125 C-6 47 -6 47 -9 45 C-6.36 45 -3.72 45 -1 45 C-0.08138216 42.24414648 0.12204322 40.6403931 0.11352539 37.80395508 C0.11341209 36.54298759 0.11341209 36.54298759 0.11329651 35.25654602 C0.10813522 34.35333115 0.10297394 33.45011627 0.09765625 32.51953125 C0.0962413 31.59154221 0.09482635 30.66355316 0.09336853 29.70744324 C0.08776937 26.74242942 0.07521704 23.77749101 0.0625 20.8125 C0.05748489 18.80273547 0.052922 16.79296975 0.04882812 14.78320312 C0.03780021 9.85543968 0.02053617 4.92773263 0 0 Z " fill="#BAB9BA" transform="translate(111,202)"/>
<path d="M0 0 C2.95135185 0.31906507 4.54165172 0.50345603 6.59375 2.7265625 C10.70679986 9.37599311 10.30822957 18.41947902 10 26 C9.98066406 26.71849121 9.96132812 27.43698242 9.94140625 28.17724609 C9.8729218 30.68146059 9.78247578 33.18415842 9.6875 35.6875 C9.65402466 36.89986328 9.65402466 36.89986328 9.61987305 38.13671875 C9.30150482 45.12788374 7.5953864 50.52930191 3 56 C3 54.35 3 52.7 3 51 C3.66 51 4.32 51 5 51 C9.62008932 37.13973204 7.63710811 19.85564995 4 6 C3.67 6.33 3.34 6.66 3 7 C-2.99681407 8.17328971 -8.90675749 8.0991667 -15 8 C-15.33 7.34 -15.66 6.68 -16 6 C-11.05 5.67 -6.1 5.34 -1 5 C-0.67 3.35 -0.34 1.7 0 0 Z " fill="#C88A39" transform="translate(116,248)"/>
<path d="M0 0 C0.763125 0.0825 1.52625 0.165 2.3125 0.25 C2.3125 0.91 2.3125 1.57 2.3125 2.25 C2.9725 2.58 3.6325 2.91 4.3125 3.25 C3.51585937 3.54390625 3.51585937 3.54390625 2.703125 3.84375 C-2.38707399 5.99872476 -4.83558967 8.03494181 -7.01171875 13.14453125 C-7.99130686 16.19654277 -8.42139543 19.05674513 -8.6875 22.25 C-9.3475 22.25 -10.0075 22.25 -10.6875 22.25 C-10.6875 20.6 -10.6875 18.95 -10.6875 17.25 C-11.6775 16.92 -12.6675 16.59 -13.6875 16.25 C-16.02572147 14.04539119 -17.54878992 12.40236064 -17.94140625 9.140625 C-17.93792157 7.17526323 -17.8204399 5.21086359 -17.6875 3.25 C-17.0275 3.25 -16.3675 3.25 -15.6875 3.25 C-15.3575 2.59 -15.0275 1.93 -14.6875 1.25 C-14.0275 1.25 -13.3675 1.25 -12.6875 1.25 C-12.0275 3.89 -11.3675 6.53 -10.6875 9.25 C-7.15044675 5.835469 -7.15044675 5.835469 -4.1875 1.9375 C-2.6875 0.25 -2.6875 0.25 0 0 Z " fill="#23382E" transform="translate(146.6875,152.75)"/>
<path d="M0 0 C3.52394445 0.86140864 5.53856372 1.46413851 7.9375 4.25 C9 7 9 7 8 13 C0.08 13 -7.84 13 -16 13 C-13.0229518 10.0229518 -11.82168114 9.43295859 -8 8.1875 C-4.13388553 6.73911601 -3.22337184 6.34162751 -0.875 2.75 C-0.58625 1.8425 -0.2975 0.935 0 0 Z " fill="#1B1C1B" transform="translate(162,146)"/>
<path d="M0 0 C4.95 0 9.9 0 15 0 C15 1.65 15 3.3 15 5 C15.66 5.33 16.32 5.66 17 6 C15.78294994 7.01471171 14.55073116 8.0112461 13.3125 9 C12.28576172 9.8353125 12.28576172 9.8353125 11.23828125 10.6875 C8.57873055 12.24702711 7.03540833 12.3648571 4 12 C0.25720235 8.79188773 0.38609998 4.63319979 0 0 Z " fill="#1C1B18" transform="translate(127,141)"/>
<path d="M0 0 C1.65 0 3.3 0 5 0 C4.835 0.639375 4.67 1.27875 4.5 1.9375 C3.17258465 10.06791901 4.43648169 16.63560671 6.66479492 24.4152832 C8.38446186 30.61285747 8.38446186 30.61285747 7 34 C6.03275368 32.6312552 5.0766356 31.25464396 4.125 29.875 C3.59132812 29.10929687 3.05765625 28.34359375 2.5078125 27.5546875 C-0.72879758 22.07089737 -1.29731422 17.08346985 -1.1875 10.8125 C-1.1865332 9.74612305 -1.1865332 9.74612305 -1.18554688 8.65820312 C-1.15892875 5.51430692 -1.00063537 3.00190612 0 0 Z " fill="#DEDED9" transform="translate(155,159)"/>
<path d="M0 0 C0 0.66 0 1.32 0 2 C-0.61488281 2.09796875 -1.22976562 2.1959375 -1.86328125 2.296875 C-3.07564453 2.52117187 -3.07564453 2.52117187 -4.3125 2.75 C-5.11300781 2.88921875 -5.91351563 3.0284375 -6.73828125 3.171875 C-9.666648 4.24409219 -10.403959 5.33638242 -12 8 C-12.50298455 10.82654456 -12.50298455 10.82654456 -12.51171875 13.9609375 C-12.54765137 15.14486084 -12.58358398 16.32878418 -12.62060547 17.54858398 C-12.64268066 18.81130127 -12.66475586 20.07401855 -12.6875 21.375 C-12.71730957 22.66672119 -12.74711914 23.95844238 -12.77783203 25.28930664 C-12.83479342 27.92694466 -12.88492506 30.56473903 -12.92822266 33.20263672 C-12.99376097 36.66992569 -13.1043244 40.13214617 -13.23046875 43.59765625 C-13.28054679 45.54422286 -13.32884269 47.49083648 -13.375 49.4375 C-13.41326904 50.3229248 -13.45153809 51.20834961 -13.4909668 52.12060547 C-13.54783729 56.50006067 -13.32357901 59.15089773 -10.4765625 62.59765625 C-9.25066406 63.78681641 -9.25066406 63.78681641 -8 65 C-12.75 64.25 -12.75 64.25 -15 62 C-15.25396729 59.79450989 -15.25396729 59.79450989 -15.25878906 57.01879883 C-15.26509338 55.98044388 -15.27139771 54.94208893 -15.27789307 53.87226868 C-15.2738446 52.74524033 -15.26979614 51.61821198 -15.265625 50.45703125 C-15.26753845 49.30007248 -15.2694519 48.14311371 -15.27142334 46.95109558 C-15.27278679 44.49726139 -15.26907924 42.04342002 -15.26074219 39.58959961 C-15.25009349 35.84537349 -15.26060726 32.10163251 -15.2734375 28.35742188 C-15.27211498 25.97395728 -15.26955069 23.59049298 -15.265625 21.20703125 C-15.26967346 20.09012405 -15.27372192 18.97321686 -15.27789307 17.82246399 C-15.2442117 12.19076209 -15.0811088 7.27059466 -13 2 C-9.02596742 -0.68831616 -4.62932504 -0.15692627 0 0 Z " fill="#372817" transform="translate(97,246)"/>
<path d="M0 0 C-0.99 2.97 -1.98 5.94 -3 9 C-3.33 9 -3.66 9 -4 9 C-3.67 6.69 -3.34 4.38 -3 2 C-5.91747073 2.1140575 -8.83344495 2.24080268 -11.75 2.375 C-12.9875 2.42140625 -12.9875 2.42140625 -14.25 2.46875 C-15.04921875 2.50742188 -15.8484375 2.54609375 -16.671875 2.5859375 C-17.77160645 2.63306885 -17.77160645 2.63306885 -18.89355469 2.68115234 C-21.25278858 3.03826401 -22.88555351 3.92554235 -25 5 C-25.99 5 -26.98 5 -28 5 C-28.06058594 5.60585937 -28.12117187 6.21171875 -28.18359375 6.8359375 C-28.35952987 8.59529873 -28.53809441 10.35439836 -28.71875 12.11328125 C-28.90505858 14.02553179 -29.07199384 15.9397768 -29.21875 17.85546875 C-29.32703125 19.19544922 -29.32703125 19.19544922 -29.4375 20.5625 C-29.52837891 21.80193359 -29.52837891 21.80193359 -29.62109375 23.06640625 C-29.74613281 23.70449219 -29.87117187 24.34257812 -30 25 C-30.66 25.33 -31.32 25.66 -32 26 C-31.95875 24.80375 -31.9175 23.6075 -31.875 22.375 C-31.86511913 19.54907039 -32.05488606 17.84220259 -33 15.125 C-34.4031564 10.74013624 -34.16241942 6.5657903 -34 2 C-32.14375 2.309375 -32.14375 2.309375 -30.25 2.625 C-27.71201317 3.0479978 -26.45797193 3.23606366 -24.14379883 2.04321289 C-21.84748078 0.92578128 -20.0880133 0.59864064 -17.55859375 0.33203125 C-16.31239258 0.19958008 -16.31239258 0.19958008 -15.04101562 0.06445312 C-14.18185547 -0.01869141 -13.32269531 -0.10183594 -12.4375 -0.1875 C-11.57447266 -0.28224609 -10.71144531 -0.37699219 -9.82226562 -0.47460938 C-3.38846261 -1.12948754 -3.38846261 -1.12948754 0 0 Z " fill="#396F83" transform="translate(168,222)"/>
<path d="M0 0 C2.64 0 5.28 0 8 0 C8.70226141 1.24176695 9.38629109 2.49385599 10.0625 3.75 C10.44535156 4.44609375 10.82820312 5.1421875 11.22265625 5.859375 C12.1312406 8.36140628 11.88336837 9.5332355 11 12 C9.02 12 7.04 12 5 12 C5 10.02 5 8.04 5 6 C4.67 7.32 4.34 8.64 4 10 C2.35 10 0.7 10 -1 10 C-1.125 3.375 -1.125 3.375 0 0 Z " fill="#B9966D" transform="translate(130,130)"/>
<path d="M0 0 C2 2 2 2 2.3125 3.8125 C2.89982874 6.29892822 2.89982874 6.29892822 5.5625 8.4375 C8 11 8 11 8.625 13.5625 C8 16 8 16 5.6875 17.6875 C2.19481882 20.69283032 1.77668663 23.3669689 0.7734375 27.7578125 C0 30 0 30 -3 32 C-5.41015625 32.265625 -5.41015625 32.265625 -8.0625 32.25 C-8.94035156 32.25515625 -9.81820312 32.2603125 -10.72265625 32.265625 C-13 32 -13 32 -15 30 C-13.948125 30.020625 -12.89625 30.04125 -11.8125 30.0625 C-8.67295096 30.01103198 -6.03116604 29.73482813 -3 29 C-2.34 26.03 -1.68 23.06 -1 20 C-0.34 20 0.32 20 1 20 C2.27253436 16.35206816 3.32829194 12.8063457 4 9 C3.236875 9 2.47375 9 1.6875 9 C-0.20833333 9 -2.10416667 9 -4 9 C-2.625 7 -2.625 7 -1 5 C-0.34 5 0.32 5 1 5 C0.67 3.35 0.34 1.7 0 0 Z " fill="#83565B" transform="translate(179,286)"/>
<path d="M0 0 C1.23556641 0.01740234 1.23556641 0.01740234 2.49609375 0.03515625 C3.32238281 0.04417969 4.14867188 0.05320313 5 0.0625 C5.63808594 0.07410156 6.27617188 0.08570313 6.93359375 0.09765625 C6.93359375 1.08765625 6.93359375 2.07765625 6.93359375 3.09765625 C5.28359375 3.09765625 3.63359375 3.09765625 1.93359375 3.09765625 C4.24359375 3.42765625 6.55359375 3.75765625 8.93359375 4.09765625 C8.93359375 5.41765625 8.93359375 6.73765625 8.93359375 8.09765625 C10.25359375 7.10765625 11.57359375 6.11765625 12.93359375 5.09765625 C12.60359375 6.41765625 12.27359375 7.73765625 11.93359375 9.09765625 C6.65359375 9.09765625 1.37359375 9.09765625 -4.06640625 9.09765625 C-3.07168497 0.1451647 -3.07168497 0.1451647 0 0 Z " fill="#221D16" transform="translate(103.06640625,244.90234375)"/>
<path d="M0 0 C0.66 0 1.32 0 2 0 C1.83734146 0.71294724 1.67468292 1.42589447 1.50709534 2.16044617 C1.00164761 4.99077395 0.87962012 7.56082906 0.88647461 10.43286133 C0.88655014 11.49358353 0.88662567 12.55430573 0.88670349 13.64717102 C0.89186478 14.7806749 0.89702606 15.91417877 0.90234375 17.08203125 C0.9037587 18.25134689 0.90517365 19.42066254 0.90663147 20.62541199 C0.91222207 24.35446751 0.92477291 28.08346267 0.9375 31.8125 C0.94251621 34.34309809 0.94707891 36.87369712 0.95117188 39.40429688 C0.96218843 45.60288513 0.97891727 51.80143825 1 58 C-0.32 57.34 -1.64 56.68 -3 56 C-2.01 55.505 -2.01 55.505 -1 55 C-1.33 45.76 -1.66 36.52 -2 27 C-2.33 27 -2.66 27 -3 27 C-3.05449228 24.16640156 -3.09390733 21.33387515 -3.125 18.5 C-3.14175781 17.70851563 -3.15851563 16.91703125 -3.17578125 16.1015625 C-3.21988718 10.72063963 -2.56794678 6.15680275 -1 1 C-0.67 0.67 -0.34 0.34 0 0 Z " fill="#AC7941" transform="translate(82,250)"/>
<path d="M0 0 C3.125 -0.5625 3.125 -0.5625 7 0 C8.91267548 2.21490411 10.30330593 4.48367737 11.73828125 7.03125 C12.15464844 7.6809375 12.57101562 8.330625 13 9 C13.66 9 14.32 9 15 9 C14.67 9.99 14.34 10.98 14 12 C12.68 11.34 11.36 10.68 10 10 C10 9.01 10 8.02 10 7 C9.01 7 8.02 7 7 7 C7.515625 8.093125 8.03125 9.18625 8.5625 10.3125 C10 14 10 14 9 17 C7.49462965 14.54481265 5.99555574 12.0861548 4.5 9.625 C4.07074219 8.92632812 3.64148438 8.22765625 3.19921875 7.5078125 C0 2.2265625 0 2.2265625 0 0 Z " fill="#E93B3E" transform="translate(367,238)"/>
<path d="M0 0 C1.07765625 0.01804687 2.1553125 0.03609375 3.265625 0.0546875 C4.49539062 0.08949219 4.49539062 0.08949219 5.75 0.125 C5.75 0.455 5.75 0.785 5.75 1.125 C2.12 1.125 -1.51 1.125 -5.25 1.125 C-6.17538169 4.82652678 -6.33174162 5.75958162 -5.25 9.125 C-6.57 9.125 -7.89 9.125 -9.25 9.125 C-9.229375 10.40375 -9.20875 11.6825 -9.1875 13 C-9.125 16.875 -9.125 16.875 -10.25 19.125 C-8.6 19.125 -6.95 19.125 -5.25 19.125 C-4.92 17.475 -4.59 15.825 -4.25 14.125 C-3.125 17.875 -3.125 17.875 -4.25 20.125 C-6.56 20.125 -8.87 20.125 -11.25 20.125 C-11.47245975 17.87635275 -11.67746557 15.62597377 -11.875 13.375 C-11.99101563 12.12203125 -12.10703125 10.8690625 -12.2265625 9.578125 C-12.24918017 6.24578767 -12.24181895 4.7400261 -10.25 2.125 C-6.96310555 -0.2291271 -3.95115776 -0.08589473 0 0 Z " fill="#5B4128" transform="translate(139.25,120.875)"/>
<path d="M0 0 C0.99 0 1.98 0 3 0 C3.33597077 6.79867657 3.65583708 13.59797189 3.96435547 20.39794922 C4.07129451 22.71257807 4.18196088 25.02703778 4.29638672 27.34130859 C4.45993569 30.66206374 4.61020231 33.98319055 4.7578125 37.3046875 C4.81188263 38.34430634 4.86595276 39.38392517 4.92166138 40.45504761 C4.96185394 41.41589264 5.00204651 42.37673767 5.04345703 43.36669922 C5.08342804 44.21497284 5.12339905 45.06324646 5.1645813 45.93722534 C5 48 5 48 3 50 C2.67 41.42 2.34 32.84 2 24 C1.67 24 1.34 24 1 24 C0.67 16.08 0.34 8.16 0 0 Z " fill="#8B8B8B" transform="translate(111,202)"/>
<path d="M0 0 C1.2065625 0.0309375 1.2065625 0.0309375 2.4375 0.0625 C3.38471072 2.66732949 3.73972393 4.36924701 2.61328125 6.953125 C1.60813275 8.68832873 0.5268855 10.37890423 -0.5625 12.0625 C-1.2225 12.0625 -1.8825 12.0625 -2.5625 12.0625 C-2.52125 13.155625 -2.48 14.24875 -2.4375 15.375 C-2.5625 19.0625 -2.5625 19.0625 -4.5625 22.0625 C-6.62109375 22.609375 -6.62109375 22.609375 -9 22.8125 C-9.78246094 22.88984375 -10.56492188 22.9671875 -11.37109375 23.046875 C-13.5625 23.0625 -13.5625 23.0625 -16.5625 22.0625 C-16.2325 20.4125 -15.9025 18.7625 -15.5625 17.0625 C-15.2325 18.3825 -14.9025 19.7025 -14.5625 21.0625 C-8.97749433 20.86351292 -8.97749433 20.86351292 -4.5625 18.0625 C-4.34573592 14.66652937 -4.48176148 12.30471555 -5.5625 9.0625 C-3.5825 8.7325 -1.6025 8.4025 0.4375 8.0625 C0.1075 6.0825 -0.2225 4.1025 -0.5625 2.0625 C-1.5525 1.7325 -2.5425 1.4025 -3.5625 1.0625 C-2.5625 0.0625 -2.5625 0.0625 0 0 Z " fill="#B62B31" transform="translate(180.5625,293.9375)"/>
<path d="M0 0 C0.99 0 1.98 0 3 0 C3.19682269 3.43703301 3.38085152 6.87463427 3.5625 10.3125 C3.61857422 11.28896484 3.67464844 12.26542969 3.73242188 13.27148438 C3.78076172 14.20927734 3.82910156 15.14707031 3.87890625 16.11328125 C3.94960327 17.40939331 3.94960327 17.40939331 4.02172852 18.73168945 C4 21 4 21 3 24 C2.01 24 1.02 24 0 24 C0 16.08 0 8.16 0 0 Z " fill="#FE3130" transform="translate(321,239)"/>
<path d="M0 0 C0.66 0 1.32 0 2 0 C2.02578125 0.58007812 2.0515625 1.16015625 2.078125 1.7578125 C2.48516088 7.36380672 3.67255843 10.36174811 7 15 C9.43864658 21.09661645 9.62231673 27.51143295 9 34 C8.37083978 35.35143614 7.70626399 36.68721159 7 38 C6.55499715 40.12593058 6.55499715 40.12593058 6.375 42.25 C6.25125 43.4875 6.1275 44.725 6 46 C4.48702818 43.59704475 3.96334031 42.36659693 4.25 39.5 C5 37 5 37 6.02734375 35.1015625 C8.81242035 29.08400743 6.75726854 22.13830332 5.046875 16.06640625 C4.1393034 13.87267377 4.1393034 13.87267377 2.078125 12.65234375 C-0.15846371 11.72735318 -0.15846371 11.72735318 -3 13 C-2.67 12.01 -2.34 11.02 -2 10 C-1.34 10 -0.68 10 0 10 C0 6.7 0 3.4 0 0 Z " fill="#B7B7B4" transform="translate(181,171)"/>
<path d="M0 0 C0.86625 -0.00257813 1.7325 -0.00515625 2.625 -0.0078125 C5 0.125 5 0.125 8 1.125 C8.6875 3.1875 8.6875 3.1875 9 5.125 C10.98 5.125 12.96 5.125 15 5.125 C15 5.785 15 6.445 15 7.125 C12.69 7.125 10.38 7.125 8 7.125 C7.34 5.805 6.68 4.485 6 3.125 C2.37 3.125 -1.26 3.125 -5 3.125 C-5.66 4.445 -6.32 5.765 -7 7.125 C-9.31 7.125 -11.62 7.125 -14 7.125 C-13.34 5.805 -12.68 4.485 -12 3.125 C-10.68 3.455 -9.36 3.785 -8 4.125 C-8 3.135 -8 2.145 -8 1.125 C-5.05173237 0.14224412 -3.07347496 -0.00914725 0 0 Z " fill="#E23E40" transform="translate(299,256.875)"/>
<path d="M0 0 C0.515625 0.391875 1.03125 0.78375 1.5625 1.1875 C1.5625 2.8375 1.5625 4.4875 1.5625 6.1875 C0.428125 6.166875 -0.70625 6.14625 -1.875 6.125 C-5.25325674 5.77172523 -5.25325674 5.77172523 -6.4375 7.1875 C-8.43708364 7.22830783 -10.43795254 7.23004356 -12.4375 7.1875 C-10.75914905 3.53461852 -9.56378275 2.25867755 -6 0.25 C-2.4375 -0.8125 -2.4375 -0.8125 0 0 Z " fill="#B09471" transform="translate(110.4375,190.8125)"/>
<path d="M0 0 C0 1.65 0 3.3 0 5 C-2.64 5 -5.28 5 -8 5 C-8 9.62 -8 14.24 -8 19 C-8.99 19.33 -9.98 19.66 -11 20 C-10.67 14.72 -10.34 9.44 -10 4 C-9.34 4 -8.68 4 -8 4 C-8 3.34 -8 2.68 -8 2 C-5.09399739 0.74335022 -3.20395416 0 0 0 Z " fill="#8F8D89" transform="translate(108,198)"/>
<path d="M0 0 C0.33 0 0.66 0 1 0 C1.27142948 3.00138365 1.30059873 4.54656876 -0.390625 7.09765625 C-1.00421875 7.74605469 -1.6178125 8.39445313 -2.25 9.0625 C-2.88550781 9.74441406 -3.52101562 10.42632812 -4.17578125 11.12890625 C-8.43546284 15.49804433 -8.43546284 15.49804433 -10 17 C-11 16 -11 16 -11.5 13.8125 C-10.80984694 9.93038902 -8.83867851 8.85066783 -5.8203125 6.4921875 C-3.5098471 4.59820084 -1.80854442 2.36501963 0 0 Z " fill="#BD9A71" transform="translate(146,146)"/>
<path d="M0 0 C2.15641331 3.23461997 2.81100973 5.67072961 3.6875 9.4375 C3.95949219 10.57058594 4.23148438 11.70367187 4.51171875 12.87109375 C4.96085657 15.74916889 4.98469931 17.31025087 4 20 C-2.70387244 10.77448747 -2.70387244 10.77448747 -3 5 C-2.34 5 -1.68 5 -1 5 C-0.67 3.35 -0.34 1.7 0 0 Z " fill="#D7D8D2" transform="translate(158,173)"/>
<path d="M0 0 C2.91952568 0.01748219 5.72297885 0.13944633 8.625 0.375 C9.42679687 0.43171875 10.22859375 0.4884375 11.0546875 0.546875 C13.03715498 0.68847982 15.01869051 0.84302259 17 1 C15.20953589 5.13718891 12.83902629 6.66320139 9 9 C7 4.25 7 4.25 7 2 C6.071875 2 5.14375 2 4.1875 2 C2.125 2 0.0625 2 -2 2 C-1.34 1.34 -0.68 0.68 0 0 Z " fill="#272846" transform="translate(394,166)"/>
<path d="M0 0 C0.33 0 0.66 0 1 0 C1.00142502 0.56296783 1.00285004 1.12593567 1.00431824 1.70596313 C1.02404395 7.57904437 1.07837851 13.45109028 1.15258789 19.32373047 C1.17574823 21.51375901 1.19015897 23.70389862 1.19555664 25.89404297 C1.20486025 29.04725199 1.24588353 32.19871874 1.29296875 35.3515625 C1.2890361 36.32678864 1.28510345 37.30201477 1.28105164 38.30679321 C1.37932876 42.91218875 1.53833699 46.03475601 4.54418945 49.66552734 C5.35460693 50.43590332 6.16502441 51.2062793 7 52 C2.25 51.25 2.25 51.25 0 49 C-0.24050903 46.89926147 -0.24050903 46.89926147 -0.22705078 44.27490234 C-0.22682419 42.80360367 -0.22682419 42.80360367 -0.22659302 41.30258179 C-0.21627045 40.24108917 -0.20594788 39.17959656 -0.1953125 38.0859375 C-0.1924826 37.00116119 -0.18965271 35.91638489 -0.18673706 34.79873657 C-0.17551578 31.32404687 -0.15040762 27.84961218 -0.125 24.375 C-0.11497272 22.02344121 -0.10584643 19.6718784 -0.09765625 17.3203125 C-0.07557011 11.54678756 -0.04207345 5.77341199 0 0 Z " fill="#301901" transform="translate(82,259)"/>
<path d="M0 0 C0.495 0.99 0.495 0.99 1 2 C-1.27020744 2.19493195 -3.54120289 2.38070418 -5.8125 2.5625 C-7.07707031 2.66691406 -8.34164062 2.77132813 -9.64453125 2.87890625 C-13 3 -13 3 -16 2 C-16.33 2.99 -16.66 3.98 -17 5 C-18.11375 4.79375 -19.2275 4.5875 -20.375 4.375 C-24.787207 3.78618234 -28.4378004 4.57482208 -32.703125 5.72265625 C-35.48364563 6.05839939 -36.59354916 5.31873759 -39 4 C-34.73247658 3.42363908 -30.46409526 2.85424905 -26.19482422 2.29101562 C-24.74568233 2.09887134 -23.29678175 1.90489719 -21.84814453 1.70898438 C-19.7535541 1.42604866 -17.6581545 1.14992991 -15.5625 0.875 C-14.30566406 0.70742188 -13.04882812 0.53984375 -11.75390625 0.3671875 C-7.78909693 -0.02062944 -3.98008902 -0.06170681 0 0 Z " fill="#322F47" transform="translate(80,306)"/>
<path d="M0 0 C2.31 0 4.62 0 7 0 C6.36934243 3.21852831 5.21979305 5.50801069 3.4375 8.25 C2.98246094 8.95640625 2.52742188 9.6628125 2.05859375 10.390625 C1.53458984 11.18726563 1.53458984 11.18726563 1 12 C-0.33332095 9.3333581 0.32897967 7.83319697 1 5 C0.01 5.495 0.01 5.495 -1 6 C-1.33 6.99 -1.66 7.98 -2 9 C-2.66 9 -3.32 9 -4 9 C-2.80100302 5.9168649 -1.52299523 2.93720508 0 0 Z " fill="#E53E3E" transform="translate(386,238)"/>
<path d="M0 0 C2.4375 0.625 2.4375 0.625 5 2 C5.8125 5.125 5.8125 5.125 6 8 C7.65 7.67 9.3 7.34 11 7 C11 8.32 11 9.64 11 11 C11.66 11.33 12.32 11.66 13 12 C12 13 12 13 8.9375 13.0625 C7.968125 13.041875 6.99875 13.02125 6 13 C5.62875 11.948125 5.62875 11.948125 5.25 10.875 C4.03524952 7.84921039 4.03524952 7.84921039 1.875 4.8125 C0 2 0 2 0 0 Z " fill="#396F88" transform="translate(162,285)"/>
<path d="M0 0 C0.5625 1.9375 0.5625 1.9375 1 4 C0.67 4.33 0.34 4.66 0 5 C-0.26548121 7.61056523 -0.46928552 10.19512284 -0.625 12.8125 C-0.70234375 13.90014648 -0.70234375 13.90014648 -0.78125 15.00976562 C-1.05583941 19.1490708 -1.05583941 19.1490708 -0.40234375 23.21484375 C0.19214421 25.85252334 -0.77793473 27.36059279 -1.9375 29.75 C-2.31777344 30.54921875 -2.69804687 31.3484375 -3.08984375 32.171875 C-3.39019531 32.77515625 -3.69054687 33.3784375 -4 34 C-5.01309292 30.84815536 -4.80662766 29.15430703 -4 26 C-3.81452968 24.31558145 -3.66223549 22.6273272 -3.53515625 20.9375 C-3.45716797 19.97585938 -3.37917969 19.01421875 -3.29882812 18.0234375 C-3.14129947 16.00811224 -2.98765193 13.99247984 -2.83789062 11.9765625 C-2.75861328 11.01492188 -2.67933594 10.05328125 -2.59765625 9.0625 C-2.53070557 8.18722656 -2.46375488 7.31195313 -2.39477539 6.41015625 C-1.98797611 3.92659258 -1.24278537 2.17353485 0 0 Z " fill="#3A8DAF" transform="translate(135,248)"/>
<path d="M0 0 C0.99 0 1.98 0 3 0 C3.33 1.98 3.66 3.96 4 6 C3.030625 6.12375 2.06125 6.2475 1.0625 6.375 C-0.4534375 6.684375 -0.4534375 6.684375 -2 7 C-2.33 7.66 -2.66 8.32 -3 9 C-4.65 8.67 -6.3 8.34 -8 8 C-8 7.01 -8 6.02 -8 5 C-5.525 5.495 -5.525 5.495 -3 6 C-2.814375 5.071875 -2.814375 5.071875 -2.625 4.125 C-2 2 -2 2 0 0 Z " fill="#C4252E" transform="translate(177,296)"/>
<path d="M0 0 C0.66 0 1.32 0 2 0 C2.33 1.98 2.66 3.96 3 6 C2.01 6 1.02 6 0 6 C0.350625 6.7425 0.70125 7.485 1.0625 8.25 C2.04509293 11.1322726 2.0326802 12.21176345 1 15 C-1.21368294 12.78631706 -2.86552921 11.06983375 -3.265625 7.88671875 C-3.25166986 5.92253213 -3.13286356 3.9597375 -3 2 C-2.34 2 -1.68 2 -1 2 C-0.67 1.34 -0.34 0.68 0 0 Z " fill="#1F251F" transform="translate(132,154)"/>
<path d="M0 0 C0.66 0.99 1.32 1.98 2 3 C0.35 3 -1.3 3 -3 3 C-3 3.99 -3 4.98 -3 6 C-2.34 6.33 -1.68 6.66 -1 7 C-1.99 7 -2.98 7 -4 7 C-4 7.66 -4 8.32 -4 9 C-4.763125 8.690625 -5.52625 8.38125 -6.3125 8.0625 C-8.18789677 7.32106407 -10.08684652 6.63771783 -12 6 C-12 5.34 -12 4.68 -12 4 C-11.30132812 3.79503906 -10.60265625 3.59007812 -9.8828125 3.37890625 C-8.97273438 3.10949219 -8.06265625 2.84007812 -7.125 2.5625 C-6.22007813 2.29566406 -5.31515625 2.02882813 -4.3828125 1.75390625 C-2.01724619 1.07386174 -2.01724619 1.07386174 0 0 Z " fill="#A1342B" transform="translate(119,304)"/>
<path d="M0 0 C1 3 1 3 -0.328125 6.03125 C-1.27945313 7.74828125 -1.27945313 7.74828125 -2.25 9.5 C-2.87390625 10.6446875 -3.4978125 11.789375 -4.140625 12.96875 C-5.63111972 15.39863215 -6.8681204 17.15763491 -9 19 C-8.67 17.02 -8.34 15.04 -8 13 C-7.34 13 -6.68 13 -6 13 C-5.87882813 12.21753906 -5.75765625 11.43507813 -5.6328125 10.62890625 C-5.46523437 9.61699219 -5.29765625 8.60507813 -5.125 7.5625 C-4.96257812 6.55316406 -4.80015625 5.54382813 -4.6328125 4.50390625 C-4.42398438 3.67761719 -4.21515625 2.85132813 -4 2 C-3.34 1.67 -2.68 1.34 -2 1 C-1.34 1.33 -0.68 1.66 0 2 C0 1.34 0 0.68 0 0 Z " fill="#37A3D0" transform="translate(156,245)"/>
<path d="M0 0 C1.75 0.125 1.75 0.125 4 1 C6.79276967 4.25823128 7.93512544 6.26043007 8.3125 10.5625 C8.04956547 13.45477985 7.68353031 16.18043746 7 19 C5 17 5 17 4.91015625 15.01171875 C4.96042969 14.24472656 5.01070312 13.47773438 5.0625 12.6875 C5.16106891 8.60674715 4.64851514 6.25971094 2 3 C1.34 2.67 0.68 2.34 0 2 C0 1.34 0 0.68 0 0 Z " fill="#4F3822" transform="translate(145,122)"/>
<path d="M0 0 C-2.625 4.875 -2.625 4.875 -6 6 C-6 5.34 -6 4.68 -6 4 C-6.66 4 -7.32 4 -8 4 C-8 6.64 -8 9.28 -8 12 C-8.66 12 -9.32 12 -10 12 C-10 8.7 -10 5.4 -10 2 C-2.25 -1.125 -2.25 -1.125 0 0 Z " fill="#A62F38" transform="translate(177,297)"/>
<path d="M0 0 C1.32 0 2.64 0 4 0 C3.72345583 3.14735717 3.4262444 6.29241854 3.125 9.4375 C3.04636719 10.33533203 2.96773437 11.23316406 2.88671875 12.15820312 C2.80292969 13.01220703 2.71914062 13.86621094 2.6328125 14.74609375 C2.55949707 15.53685303 2.48618164 16.3276123 2.41064453 17.14233398 C2.27513184 17.75536377 2.13961914 18.36839355 2 19 C1.34 19.33 0.68 19.66 0 20 C0 13.4 0 6.8 0 0 Z " fill="#237896" transform="translate(136,228)"/>
<path d="M0 0 C0.33 0 0.66 0 1 0 C1 1.98 1 3.96 1 6 C1.66 6.33 2.32 6.66 3 7 C2.01 7 1.02 7 0 7 C-0.33 6.34 -0.66 5.68 -1 5 C-4.37400578 4.58274322 -4.37400578 4.58274322 -8 5 C-9.89858275 7.30305165 -9.89858275 7.30305165 -11 10 C-11.66 10.66 -12.32 11.32 -13 12 C-12.74624791 8.27830274 -12.39626084 6.44287976 -9.875 3.625 C-6.3565648 1.63631924 -3.98002315 1.68784132 0 2 C0 1.34 0 0.68 0 0 Z " fill="#A77C45" transform="translate(97,246)"/>
<path d="M0 0 C0.66 0 1.32 0 2 0 C2.19222407 4.09292917 2.3709507 8.18620091 2.53710938 12.28027344 C2.59555965 13.67333833 2.65771628 15.0662528 2.72363281 16.45898438 C2.81766015 18.45920227 2.89732059 20.46007932 2.9765625 22.4609375 C3.02893066 23.66540527 3.08129883 24.86987305 3.13525391 26.11083984 C3 29 3 29 1 31 C0.97494385 30.23333008 0.9498877 29.46666016 0.92407227 28.67675781 C0.80798577 25.20100717 0.68531634 21.72551908 0.5625 18.25 C0.52318359 17.0434375 0.48386719 15.836875 0.44335938 14.59375 C0.40146484 13.43359375 0.35957031 12.2734375 0.31640625 11.078125 C0.27974854 10.00981445 0.24309082 8.94150391 0.20532227 7.84082031 C0.08697272 5.06319444 0.08697272 5.06319444 -0.58227539 2.68261719 C-0.72012451 2.12735352 -0.85797363 1.57208984 -1 1 C-0.67 0.67 -0.34 0.34 0 0 Z " fill="#9D948F" transform="translate(113,221)"/>
<path d="M0 0 C-0.99 2.97 -1.98 5.94 -3 9 C-3.33 9 -3.66 9 -4 9 C-3.67 6.69 -3.34 4.38 -3 2 C-7.62 2 -12.24 2 -17 2 C-17 1.67 -17 1.34 -17 1 C-14.73052303 0.63724344 -12.45935265 0.28506814 -10.1875 -0.0625 C-8.92292969 -0.25972656 -7.65835938 -0.45695313 -6.35546875 -0.66015625 C-3 -1 -3 -1 0 0 Z " fill="#428DAE" transform="translate(168,222)"/>
<path d="M0 0 C2.64 0.99 5.28 1.98 8 3 C7.67 4.32 7.34 5.64 7 7 C4.69 7 2.38 7 0 7 C0 4.69 0 2.38 0 0 Z " fill="#1A1921" transform="translate(81,308)"/>
<path d="M0 0 C0.99 0 1.98 0 3 0 C2.67 1.32 2.34 2.64 2 4 C-4.7281627 4.22262303 -10.53991163 3.95021536 -17 2 C-17 1.67 -17 1.34 -17 1 C-12.38 1 -7.76 1 -3 1 C-3 1.66 -3 2.32 -3 3 C-2.01 3 -1.02 3 0 3 C0 2.01 0 1.02 0 0 Z " fill="#D68B37" transform="translate(104,308)"/>
<path d="M0 0 C0.66 0 1.32 0 2 0 C4 2 4 2 4.23046875 3.91796875 C4.13989209 8.70206339 3.80325651 13.28086801 3 18 C2.67 18 2.34 18 2 18 C2 14.7 2 11.4 2 8 C1.34 8 0.68 8 0 8 C0 5.36 0 2.72 0 0 Z " fill="#F09429" transform="translate(120,273)"/>
<path d="M0 0 C3.3125 -0.25 3.3125 -0.25 7 0 C8.9375 1.875 8.9375 1.875 10 4 C10 4.66 10 5.32 10 6 C9.34 6 8.68 6 8 6 C8 5.01 8 4.02 8 3 C7.01 3 6.02 3 5 3 C5.33 5.31 5.66 7.62 6 10 C3.38275905 7.63202009 1.67138271 5.10399646 0 2 C0 1.34 0 0.68 0 0 Z " fill="#DD4647" transform="translate(367,238)"/>
<path d="M0 0 C0.66 0.33 1.32 0.66 2 1 C2 7.6 2 14.2 2 21 C1.67 21 1.34 21 1 21 C0.6377756 18.06328811 0.28491613 15.12596806 -0.0625 12.1875 C-0.16626953 11.35412109 -0.27003906 10.52074219 -0.37695312 9.66210938 C-0.47041016 8.85966797 -0.56386719 8.05722656 -0.66015625 7.23046875 C-0.74918213 6.49207764 -0.83820801 5.75368652 -0.92993164 4.99291992 C-1 3 -1 3 0 0 Z " fill="#21213F" transform="translate(221,178)"/>
<path d="M0 0 C4.22797927 3.08290155 4.22797927 3.08290155 6 5 C6.375 7.8125 6.375 7.8125 6 10 C5.34 9.01 4.68 8.02 4 7 C3.01 7 2.02 7 1 7 C0.67 9.64 0.34 12.28 0 15 C-0.33 15 -0.66 15 -1 15 C-1.02693575 12.87506859 -1.04636628 10.75004088 -1.0625 8.625 C-1.07410156 7.44164062 -1.08570313 6.25828125 -1.09765625 5.0390625 C-1 2 -1 2 0 0 Z " fill="#575756" transform="translate(130,165)"/>
<path d="M0 0 C4.12348715 3.72466974 6.47454339 7.30111839 8.8125 12.3125 C9.12380859 12.95767578 9.43511719 13.60285156 9.75585938 14.26757812 C10.51323712 15.84059344 11.25796058 17.41969126 12 19 C11.34 19.33 10.68 19.66 10 20 C9.01 17.03 8.02 14.06 7 11 C6.34 11 5.68 11 5 11 C4.731875 10.21625 4.46375 9.4325 4.1875 8.625 C3.15185568 5.71885077 3.15185568 5.71885077 0 4 C0 2.68 0 1.36 0 0 Z " fill="#2B677F" transform="translate(167,267)"/>
<path d="M0 0 C1.4540625 0.0309375 1.4540625 0.0309375 2.9375 0.0625 C2.2775 2.0425 1.6175 4.0225 0.9375 6.0625 C0.6075 4.7425 0.2775 3.4225 -0.0625 2.0625 C-0.825625 2.3925 -1.58875 2.7225 -2.375 3.0625 C-5.0625 4.0625 -5.0625 4.0625 -8.0625 4.0625 C-8.0625 4.7225 -8.0625 5.3825 -8.0625 6.0625 C-9.0525 5.7325 -10.0425 5.4025 -11.0625 5.0625 C-11.0625 4.0725 -11.0625 3.0825 -11.0625 2.0625 C-9.928125 1.918125 -8.79375 1.77375 -7.625 1.625 C-3.97252634 1.04829363 -3.54680005 0.07238367 0 0 Z " fill="#5F5344" transform="translate(108.0625,195.9375)"/>
<path d="M0 0 C0.99 0 1.98 0 3 0 C2.51058824 5.50588235 2.51058824 5.50588235 0.0625 7.875 C-2 9 -2 9 -4 9 C-3.47557578 5.2241456 -2.67345333 2.77627845 0 0 Z " fill="#BA9A77" transform="translate(146,137)"/>
<path d="M0 0 C3.96 1.98 3.96 1.98 8 4 C8 4.66 8 5.32 8 6 C9.32 6.33 10.64 6.66 12 7 C11.67 7.99 11.34 8.98 11 10 C11.66 10.33 12.32 10.66 13 11 C12.34 11.66 11.68 12.32 11 13 C8 9.25 8 9.25 8 7 C7.34 7 6.68 7 6 7 C6 6.34 6 5.68 6 5 C4.35 4.67 2.7 4.34 1 4 C0.67 2.68 0.34 1.36 0 0 Z " fill="#532E48" transform="translate(120,304)"/>
<path d="M0 0 C0.66 0.33 1.32 0.66 2 1 C2.625 3.5625 2.625 3.5625 3 6 C4.1446875 6.185625 4.1446875 6.185625 5.3125 6.375 C8 7 8 7 11 9 C8.11788698 9.96070434 6.30149956 10.10581883 3.3125 10.0625 C1.889375 10.041875 0.46625 10.02125 -1 10 C-0.67 6.7 -0.34 3.4 0 0 Z " fill="#262945" transform="translate(419,201)"/>
<path d="M0 0 C0.99 0.66 1.98 1.32 3 2 C2.2575 3.0828125 2.2575 3.0828125 1.5 4.1875 C-0.07919285 7.14848659 -0.28178312 8.71253029 0 12 C-0.99 12 -1.98 12 -3 12 C-3.2954439 6.97745369 -2.98514628 4.10457614 0 0 Z " fill="#5C5B5C" transform="translate(150,202)"/>
<path d="M0 0 C5.44876003 1.72066106 10.71169451 3.84705349 16 6 C15.67 6.66 15.34 7.32 15 8 C8.55510814 7.73146284 4.73633646 5.33036476 0 1 C0 0.67 0 0.34 0 0 Z " fill="#DCCCD1" transform="translate(115,313)"/>
<path d="M0 0 C0.99928333 2.698065 1.03624754 3.88010429 0.1875 6.6875 C-1 9 -1 9 -3 10 C-4.66345582 10.12082534 -6.33220591 10.1753794 -8 10.1875 C-9.3303125 10.20876953 -9.3303125 10.20876953 -10.6875 10.23046875 C-13 10 -13 10 -15 8 C-13.948125 8.020625 -12.89625 8.04125 -11.8125 8.0625 C-7.27213299 8.13159002 -7.27213299 8.13159002 -3 7 C-1.13016255 3.52692672 -1.13016255 3.52692672 0 0 Z " fill="#D5C9CE" transform="translate(179,308)"/>
<path d="M0 0 C-0.33 0.66 -0.66 1.32 -1 2 C-1.99902344 1.98839844 -2.99804688 1.97679687 -4.02734375 1.96484375 C-5.31769531 1.95582031 -6.60804688 1.94679687 -7.9375 1.9375 C-9.86916016 1.92009766 -9.86916016 1.92009766 -11.83984375 1.90234375 C-14.86298403 1.63467451 -14.86298403 1.63467451 -16 3 C-17.99958364 3.04080783 -20.00045254 3.04254356 -22 3 C-15.98855453 -2.2371375 -7.44093191 -1.48818638 0 0 Z " fill="#39A3CF" transform="translate(165,224)"/>
<path d="M0 0 C0.66 0 1.32 0 2 0 C2.33 1.98 2.66 3.96 3 6 C3.66 6 4.32 6 5 6 C5 9.3 5 12.6 5 16 C4.34 16 3.68 16 3 16 C2.01 10.72 1.02 5.44 0 0 Z " fill="#DF8B31" transform="translate(121,258)"/>
<path d="M0 0 C0.66 0 1.32 0 2 0 C2.04898438 0.59167969 2.09796875 1.18335938 2.1484375 1.79296875 C2.56456867 6.19104472 3.04965595 9.96928897 5 14 C4.236875 13.649375 3.47375 13.29875 2.6875 12.9375 C-0.04759379 11.67639116 -0.04759379 11.67639116 -3 13 C-2.67 12.01 -2.34 11.02 -2 10 C-1.34 10 -0.68 10 0 10 C0 6.7 0 3.4 0 0 Z " fill="#C5C6BD" transform="translate(181,171)"/>
<path d="M0 0 C0.66 0 1.32 0 2 0 C1.67 2.97 1.34 5.94 1 9 C0.01 9.33 -0.98 9.66 -2 10 C-2.33 8.02 -2.66 6.04 -3 4 C-2.01 3.67 -1.02 3.34 0 3 C0 2.01 0 1.02 0 0 Z " fill="#DEDFDA" transform="translate(180,172)"/>
<path d="M0 0 C1.32 0.66 2.64 1.32 4 2 C4.375 4.25 4.375 4.25 4 7 C-0.97297297 11 -0.97297297 11 -4 11 C-4 10.34 -4 9.68 -4 9 C-3.01 8.67 -2.02 8.34 -1 8 C0.68538601 6.00334686 0.68538601 6.00334686 2 4 C1.34 2.68 0.68 1.36 0 0 Z " fill="#292A44" transform="translate(246,317)"/>
<path d="M0 0 C1.134375 0.020625 2.26875 0.04125 3.4375 0.0625 C3.4375 1.0525 3.4375 2.0425 3.4375 3.0625 C2.1175 2.7325 0.7975 2.4025 -0.5625 2.0625 C-1.2225 3.3825 -1.8825 4.7025 -2.5625 6.0625 C-3.2225 6.0625 -3.8825 6.0625 -4.5625 6.0625 C-4.5625 6.7225 -4.5625 7.3825 -4.5625 8.0625 C-5.2225 8.0625 -5.8825 8.0625 -6.5625 8.0625 C-4.38461538 0.07692308 -4.38461538 0.07692308 0 0 Z " fill="#E44343" transform="translate(299.5625,237.9375)"/>
<path d="M0 0 C0.33 1.32 0.66 2.64 1 4 C7.28908482 3.47519999 7.28908482 3.47519999 13 1 C12.27734375 2.94921875 12.27734375 2.94921875 11 5 C8.94140625 5.64453125 8.94140625 5.64453125 6.5625 5.8125 C5.38880859 5.91498047 5.38880859 5.91498047 4.19140625 6.01953125 C2 6 2 6 -1 5 C-0.67 3.35 -0.34 1.7 0 0 Z " fill="#943E47" transform="translate(165,311)"/>
<path d="M0 0 C1.95582488 2.93373731 3.56224304 5.78216298 5 9 C4.67 9.66 4.34 10.32 4 11 C3.67 10.01 3.34 9.02 3 8 C1.35 8.33 -0.3 8.66 -2 9 C-1.34 6.03 -0.68 3.06 0 0 Z M-3 9 C-3 12 -3 12 -3 12 Z " fill="#246D85" transform="translate(162,256)"/>
<path d="M0 0 C2.97 0 5.94 0 9 0 C9 0.99 9 1.98 9 3 C7.35 3 5.7 3 4 3 C4 3.33 4 3.66 4 4 C2.35 4 0.7 4 -1 4 C-0.67 2.68 -0.34 1.36 0 0 Z " fill="#3D3D3F" transform="translate(101,245)"/>
<path d="M0 0 C2.86724686 0.57344937 3.8614515 0.8614515 6 3 C5.01 3.495 5.01 3.495 4 4 C3.01 5.485 3.01 5.485 2 7 C0.68 5.68 -0.64 4.36 -2 3 C-1.34 2.01 -0.68 1.02 0 0 Z " fill="#FA3030" transform="translate(299,239)"/>
<path d="M0 0 C0.33 0 0.66 0 1 0 C2.03863773 6.23182639 1.83288874 11.74692761 1 18 C0.67 18 0.34 18 0 18 C-0.19484938 15.56288386 -0.38115178 13.12562602 -0.5625 10.6875 C-0.64661133 9.65206055 -0.64661133 9.65206055 -0.73242188 8.59570312 C-0.96581505 5.37487726 -1.03224218 3.09672655 0 0 Z " fill="#363637" transform="translate(128,159)"/>
<path d="M0 0 C0.66 0.99 1.32 1.98 2 3 C0.625 4.5 0.625 4.5 -1 6 C-1.66 6 -2.32 6 -3 6 C-3 5.01 -3 4.02 -3 3 C-3.66 3 -4.32 3 -5 3 C-5 4.65 -5 6.3 -5 8 C-5.66 7.01 -6.32 6.02 -7 5 C-6.67 4.01 -6.34 3.02 -6 2 C-2.9375 0.8125 -2.9375 0.8125 0 0 Z " fill="#595647" transform="translate(137,151)"/>
<path d="M0 0 C2.64 0.33 5.28 0.66 8 1 C8 1.66 8 2.32 8 3 C9.32 2.67 10.64 2.34 12 2 C12.33 2.99 12.66 3.98 13 5 C8.02693484 4.50269348 4.36200187 3.44697666 0 1 C0 0.67 0 0.34 0 0 Z " fill="#89333A" transform="translate(119,314)"/>
<path d="M0 0 C4.75 0.75 4.75 0.75 7 3 C6.01 3 5.02 3 4 3 C4.95865509 5.33075929 4.95865509 5.33075929 8 7 C4.84859577 6.65930765 3.39218439 6.41923159 1.1875 4.0625 C0 2 0 2 0 0 Z " fill="#22171A" transform="translate(106,310)"/>
<path d="M0 0 C2 3 2 3 2 5 C1.34 5 0.68 5 0 5 C-0.433125 6.0828125 -0.433125 6.0828125 -0.875 7.1875 C-1.91666667 9.79166667 -2.95833333 12.39583333 -4 15 C-5.11346788 12.19966161 -5.03510273 11.09856297 -4.00390625 8.203125 C-3.52824219 7.22859375 -3.05257812 6.2540625 -2.5625 5.25 C-2.08941406 4.26515625 -1.61632812 3.2803125 -1.12890625 2.265625 C-0.75636719 1.51796875 -0.38382813 0.7703125 0 0 Z " fill="#4599B2" transform="translate(129,282)"/>
<path d="M0 0 C1 3 1 3 -0.4375 6.1875 C-1.2109375 7.5796875 -1.2109375 7.5796875 -2 9 C-2.99 8.67 -3.98 8.34 -5 8 C-5.33 7.01 -5.66 6.02 -6 5 C-5.01 5 -4.02 5 -3 5 C-2.87625 4.360625 -2.7525 3.72125 -2.625 3.0625 C-2.41875 2.381875 -2.2125 1.70125 -2 1 C-1.34 0.67 -0.68 0.34 0 0 Z " fill="#1C3024" transform="translate(141,159)"/>
<path d="M0 0 C1.98 0.66 3.96 1.32 6 2 C6 1.34 6 0.68 6 0 C7.98 0 9.96 0 12 0 C9.73437327 2.26562673 8.15839295 2.94462749 4.95703125 3.09765625 C4.24933594 3.08605469 3.54164062 3.07445312 2.8125 3.0625 C0.9253125 3.0315625 0.9253125 3.0315625 -1 3 C-0.67 2.01 -0.34 1.02 0 0 Z " fill="#F58E2E" transform="translate(105,305)"/>
<path d="M0 0 C1.33333333 1.33333333 2.66666667 2.66666667 4 4 C4.86625 4.7115625 4.86625 4.7115625 5.75 5.4375 C7.49958044 7.62447555 7.22031983 9.28272205 7 12 C4.04485124 9.24865461 1.8475191 6.60266225 0 3 C0 2.01 0 1.02 0 0 Z " fill="#2B6C84" transform="translate(149,263)"/>
<path d="M0 0 C0.66 0.66 1.32 1.32 2 2 C-2.62 2.33 -7.24 2.66 -12 3 C-7.08540021 -0.68594984 -5.86772295 -0.47320346 0 0 Z " fill="#42515B" transform="translate(163,220)"/>
<path d="M0 0 C2.97 0.495 2.97 0.495 6 1 C4.25 4.875 4.25 4.875 2 6 C1.01 5.01 0.02 4.02 -1 3 C-0.67 2.01 -0.34 1.02 0 0 Z " fill="#3D3935" transform="translate(110,188)"/>
<path d="M0 0 C1.65 0 3.3 0 5 0 C5 0.99 5 1.98 5 3 C5.66 3.33 6.32 3.66 7 4 C6.01 4.66 5.02 5.32 4 6 C3.67 5.34 3.34 4.68 3 4 C1.68 4 0.36 4 -1 4 C-0.67 2.68 -0.34 1.36 0 0 Z " fill="#24221E" transform="translate(137,143)"/>
<path d="M0 0 C0.66 0.33 1.32 0.66 2 1 C0.88671875 2.48828125 0.88671875 2.48828125 -1 4 C-3.91796875 4.29296875 -3.91796875 4.29296875 -7.1875 4.1875 C-8.27417969 4.16042969 -9.36085938 4.13335937 -10.48046875 4.10546875 C-11.31191406 4.07066406 -12.14335937 4.03585938 -13 4 C-9.28125 1.953125 -9.28125 1.953125 -6.75 2.375 C-5.88375 2.684375 -5.88375 2.684375 -5 3 C-4.67 2.34 -4.34 1.68 -4 1 C-3.34 1 -2.68 1 -2 1 C-1.34 0.67 -0.68 0.34 0 0 Z " fill="#242744" transform="translate(403,189)"/>
<path d="M0 0 C4.40114397 0.50298788 6.71195019 2.08772731 10 5 C9.67 5.66 9.34 6.32 9 7 C8.4225 6.505 7.845 6.01 7.25 5.5 C4.89599371 3.63019987 4.89599371 3.63019987 1 4 C0.67 2.68 0.34 1.36 0 0 Z " fill="#B5B5B2" transform="translate(171,163)"/>
<path d="M0 0 C2.64 0.33 5.28 0.66 8 1 C5 3 5 3 1 3 C0.67 3.99 0.34 4.98 0 6 C-0.66 5.34 -1.32 4.68 -2 4 C-1.34 2.68 -0.68 1.36 0 0 Z " fill="#332E4C" transform="translate(182,305)"/>
<path d="M0 0 C2 1 2 1 2.625 2.625 C3.12095645 5.7660575 3.06103811 8.82601831 3 12 C1 9 1 9 1 6 C0.34 6 -0.32 6 -1 6 C-0.67 4.02 -0.34 2.04 0 0 Z " fill="#CB8332" transform="translate(122,252)"/>
<path d="M0 0 C0 1.32 0 2.64 0 4 C-2.31 4 -4.62 4 -7 4 C-7 3.34 -7 2.68 -7 2 C-4.35261084 0.5393715 -3.10551666 0 0 0 Z " fill="#AD957C" transform="translate(108,198)"/>
<path d="M0 0 C2.76223278 2.76223278 2.57856291 5.20706617 3 9 C0.47411298 6.63707344 -0.88820837 5.33537489 -2 2 C-1.34 1.34 -0.68 0.68 0 0 Z " fill="#C8C9C6" transform="translate(160,184)"/>
<path d="M0 0 C2.475 0.99 2.475 0.99 5 2 C5 3.98 5 5.96 5 8 C2.27573689 5.64722731 1.1858237 3.37503669 0 0 Z " fill="#276F82" transform="translate(162,285)"/>
<path d="M0 0 C1.98362069 2.91708924 1.9876191 4.12380904 1.625 7.75 C1.41875 8.8225 1.2125 9.895 1 11 C0.34 11 -0.32 11 -1 11 C-1.125 3.375 -1.125 3.375 0 0 Z " fill="#B4B0AF" transform="translate(99,241)"/>
<path d="M0 0 C0.99 0 1.98 0 3 0 C5 2 5 2 6 4 C5.01 4 4.02 4 3 4 C3 5.65 3 7.3 3 9 C1.35173889 6.03312999 0.55728913 3.34373475 0 0 Z " fill="#394336" transform="translate(132,160)"/>
<path d="M0 0 C1.98 0.495 1.98 0.495 4 1 C3.34 1 2.68 1 2 1 C1.67 3.31 1.34 5.62 1 8 C1.66 8.33 2.32 8.66 3 9 C1.68 8.67 0.36 8.34 -1 8 C-0.67 5.36 -0.34 2.72 0 0 Z " fill="#B39066" transform="translate(130,130)"/>
<path d="M0 0 C0.66 0 1.32 0 2 0 C2 0.66 2 1.32 2 2 C2.66 2 3.32 2 4 2 C4 1.34 4 0.68 4 0 C4.99 0 5.98 0 7 0 C6.34 1.32 5.68 2.64 5 4 C3.35 3.67 1.7 3.34 0 3 C0 2.01 0 1.02 0 0 Z " fill="#1A1A2C" transform="translate(90,313)"/>
<path d="M0 0 C1.35055201 2.70110402 1 5.00789006 1 8 C1.33 8.66 1.66 9.32 2 10 C0.0625 9.1875 0.0625 9.1875 -2 8 C-2.33 7.01 -2.66 6.02 -3 5 C-1.5625 2.3125 -1.5625 2.3125 0 0 Z " fill="#5F96AB" transform="translate(123,297)"/>
<path d="M0 0 C0.66 0 1.32 0 2 0 C2 4.29 2 8.58 2 13 C1.67 13 1.34 13 1 13 C0.855625 11.7625 0.71125 10.525 0.5625 9.25 C0.28133328 6.94769282 -0.04800803 4.81276869 -0.625 2.5625 C-0.74875 2.046875 -0.8725 1.53125 -1 1 C-0.67 0.67 -0.34 0.34 0 0 Z " fill="#9B9B9B" transform="translate(113,221)"/>
<path d="M0 0 C0.99 0 1.98 0 3 0 C3 2.31 3 4.62 3 7 C2.01 7.495 2.01 7.495 1 8 C0.67 5.36 0.34 2.72 0 0 Z " fill="#828181" transform="translate(111,202)"/>
<path d="M0 0 C0.99 0.33 1.98 0.66 3 1 C3 2.98 3 4.96 3 7 C2.01 7.495 2.01 7.495 1 8 C0.01 5.69 -0.98 3.38 -2 1 C-1.34 0.67 -0.68 0.34 0 0 Z " fill="#674525" transform="translate(140,130)"/>
<path d="M0 0 C0.33 0.99 0.66 1.98 1 3 C1.66 3.33 2.32 3.66 3 4 C0.03 6.475 0.03 6.475 -3 9 C-2.44271087 5.65626525 -1.64826111 2.96687001 0 0 Z " fill="#E43F3E" transform="translate(290,251)"/>
<path d="M0 0 C0.66 0.33 1.32 0.66 2 1 C0.35 2.98 -1.3 4.96 -3 7 C-3.66 6.67 -4.32 6.34 -5 6 C-3.63016497 2.83884224 -3.0109362 2.0072908 0 0 Z " fill="#79604B" transform="translate(143,147)"/>
<path d="M0 0 C0.99 0 1.98 0 3 0 C3 0.99 3 1.98 3 3 C3.99 3.33 4.98 3.66 6 4 C3.92446352 4.5534764 2.15634036 5 0 5 C0 3.35 0 1.7 0 0 Z " fill="#38A3D4" transform="translate(140,227)"/>
<path d="M0 0 C0 0.99 0 1.98 0 3 C-2.25 5.25 -2.25 5.25 -5 7 C-6.32 6.67 -7.64 6.34 -9 6 C-6.03 4.02 -3.06 2.04 0 0 Z " fill="#1E1E39" transform="translate(210,166)"/>
<path d="M0 0 C2.475 0.495 2.475 0.495 5 1 C3.515 3.475 3.515 3.475 2 6 C1.34 5.67 0.68 5.34 0 5 C0 3.35 0 1.7 0 0 Z " fill="#A7997F" transform="translate(135,157)"/>
<path d="M0 0 C1.65 0.33 3.3 0.66 5 1 C3.71034824 2.37562854 2.37310707 3.70766393 1 5 C0.34 5 -0.32 5 -1 5 C-0.67 3.35 -0.34 1.7 0 0 Z " fill="#AE9576" transform="translate(143,141)"/>
<path d="M0 0 C0.66 0 1.32 0 2 0 C1.6875 1.9375 1.6875 1.9375 1 4 C0.01 4.33 -0.98 4.66 -2 5 C-2 4.34 -2 3.68 -2 3 C-3.32 2.67 -4.64 2.34 -6 2 C-4.02 2 -2.04 2 0 2 C0 1.34 0 0.68 0 0 Z " fill="#292743" transform="translate(88,313)"/>
<path d="M0 0 C3.68802044 1.22934015 4.72356973 2.93859378 7 6 C2.25 5.25 2.25 5.25 0 3 C0 2.01 0 1.02 0 0 Z " fill="#3C230B" transform="translate(82,305)"/>
<path d="M0 0 C1.98 0 3.96 0 6 0 C6 0.99 6 1.98 6 3 C5.01 3.33 4.02 3.66 3 4 C3 3.34 3 2.68 3 2 C2.01 2.33 1.02 2.66 0 3 C0 2.01 0 1.02 0 0 Z " fill="#252544" transform="translate(254,201)"/>
<path d="M0 0 C2.4375 1.1875 2.4375 1.1875 5 3 C5.8125 5.6875 5.8125 5.6875 6 8 C1.125 3.375 1.125 3.375 0 0 Z " fill="#242847" transform="translate(269,168)"/>
<path d="M0 0 C0.1875 2.375 0.1875 2.375 0 5 C-0.99 5.66 -1.98 6.32 -3 7 C-3.6875 5.1875 -3.6875 5.1875 -4 3 C-1.64285714 0 -1.64285714 0 0 0 Z " fill="#AC9477" transform="translate(147,146)"/>
<path d="" fill="#FFFFFF" transform="translate(0,0)"/>
<path d="" fill="#FFFFFF" transform="translate(0,0)"/>
<path d="" fill="#FFFFFF" transform="translate(0,0)"/>
<path d="" fill="#FFFFFF" transform="translate(0,0)"/>
<path d="" fill="#FFFFFF" transform="translate(0,0)"/>
<path d="" fill="#FFFFFF" transform="translate(0,0)"/>
<path d="" fill="#FFFFFF" transform="translate(0,0)"/>
<path d="" fill="#FFFFFF" transform="translate(0,0)"/>
<path d="" fill="#FFFFFF" transform="translate(0,0)"/>
<path d="" fill="#FFFFFF" transform="translate(0,0)"/>
<path d="" fill="#FFFFFF" transform="translate(0,0)"/>
<path d="" fill="#FFFFFF" transform="translate(0,0)"/>
<path d="" fill="#FFFFFF" transform="translate(0,0)"/>
<path d="" fill="#FFFFFF" transform="translate(0,0)"/>
<path d="" fill="#FFFFFF" transform="translate(0,0)"/>
<path d="" fill="#FFFFFF" transform="translate(0,0)"/>
<path d="" fill="#FFFFFF" transform="translate(0,0)"/>
<path d="" fill="#FFFFFF" transform="translate(0,0)"/>
<path d="" fill="#FFFFFF" transform="translate(0,0)"/>
<path d="" fill="#FFFFFF" transform="translate(0,0)"/>
<path d="" fill="#FFFFFF" transform="translate(0,0)"/>
<path d="" fill="#FFFFFF" transform="translate(0,0)"/>
<path d="" fill="#FFFFFF" transform="translate(0,0)"/>
<path d="" fill="#FFFFFF" transform="translate(0,0)"/>
<path d="" fill="#FFFFFF" transform="translate(0,0)"/>
<path d="" fill="#FFFFFF" transform="translate(0,0)"/>
<path d="" fill="#FFFFFF" transform="translate(0,0)"/>
<path d="" fill="#FFFFFF" transform="translate(0,0)"/>
<path d="" fill="#FFFFFF" transform="translate(0,0)"/>
<path d="" fill="#FFFFFF" transform="translate(0,0)"/>
<path d="" fill="#FFFFFF" transform="translate(0,0)"/>
<path d="" fill="#FFFFFF" transform="translate(0,0)"/>
<path d="" fill="#FFFFFF" transform="translate(0,0)"/>
<path d="" fill="#FFFFFF" transform="translate(0,0)"/>
<path d="" fill="#FFFFFF" transform="translate(0,0)"/>
<path d="" fill="#FFFFFF" transform="translate(0,0)"/>
<path d="" fill="#FFFFFF" transform="translate(0,0)"/>
<path d="" fill="#FFFFFF" transform="translate(0,0)"/>
<path d="" fill="#FFFFFF" transform="translate(0,0)"/>
<path d="" fill="#FFFFFF" transform="translate(0,0)"/>
<path d="" fill="#FFFFFF" transform="translate(0,0)"/>
<path d="" fill="#FFFFFF" transform="translate(0,0)"/>
<path d="" fill="#FFFFFF" transform="translate(0,0)"/>
<path d="" fill="#FFFFFF" transform="translate(0,0)"/>
<path d="" fill="#FFFFFF" transform="translate(0,0)"/>
<path d="" fill="#FFFFFF" transform="translate(0,0)"/>
<path d="" fill="#FFFFFF" transform="translate(0,0)"/>
<path d="" fill="#FFFFFF" transform="translate(0,0)"/>
<path d="" fill="#FFFFFF" transform="translate(0,0)"/>
<path d="" fill="#FFFFFF" transform="translate(0,0)"/>
<path d="" fill="#FFFFFF" transform="translate(0,0)"/>
<path d="" fill="#FFFFFF" transform="translate(0,0)"/>
<path d="" fill="#FFFFFF" transform="translate(0,0)"/>
<path d="" fill="#FFFFFF" transform="translate(0,0)"/>
<path d="" fill="#FFFFFF" transform="translate(0,0)"/>
<path d="" fill="#FFFFFF" transform="translate(0,0)"/>
<path d="" fill="#FFFFFF" transform="translate(0,0)"/>
<path d="" fill="#FFFFFF" transform="translate(0,0)"/>
<path d="" fill="#FFFFFF" transform="translate(0,0)"/>
<path d="" fill="#FFFFFF" transform="translate(0,0)"/>
<path d="" fill="#FFFFFF" transform="translate(0,0)"/>
<path d="" fill="#FFFFFF" transform="translate(0,0)"/>
<path d="" fill="#FFFFFF" transform="translate(0,0)"/>
<path d="" fill="#FFFFFF" transform="translate(0,0)"/>
<path d="" fill="#FFFFFF" transform="translate(0,0)"/>
<path d="" fill="#FFFFFF" transform="translate(0,0)"/>
<path d="" fill="#FFFFFF" transform="translate(0,0)"/>
<path d="" fill="#FFFFFF" transform="translate(0,0)"/>
<path d="" fill="#FFFFFF" transform="translate(0,0)"/>
<path d="" fill="#FFFFFF" transform="translate(0,0)"/>
<path d="" fill="#FFFFFF" transform="translate(0,0)"/>
<path d="" fill="#FFFFFF" transform="translate(0,0)"/>
<path d="" fill="#FFFFFF" transform="translate(0,0)"/>
<path d="" fill="#FFFFFF" transform="translate(0,0)"/>
<path d="" fill="#FFFFFF" transform="translate(0,0)"/>
<path d="" fill="#FFFFFF" transform="translate(0,0)"/>
<path d="" fill="#FFFFFF" transform="translate(0,0)"/>
<path d="" fill="#FFFFFF" transform="translate(0,0)"/>
</svg>
